<?xml version="1.0" standalone="no"?>
<!DOCTYPE svg PUBLIC "-//W3C//DTD SVG 1.1//EN" "http://www.w3.org/Graphics/SVG/1.1/DTD/svg11.dtd" >
<svg xmlns="http://www.w3.org/2000/svg">
<metadata></metadata>
<defs>
<font id="mercury_displaybold" horiz-adv-x="989" >
<font-face units-per-em="2048" ascent="1638" descent="-410" />
<missing-glyph horiz-adv-x="430" />
<glyph horiz-adv-x="2048" />
<glyph horiz-adv-x="2048" />
<glyph unicode="&#xd;" horiz-adv-x="681" />
<glyph unicode=" "  horiz-adv-x="430" />
<glyph unicode="&#x09;" horiz-adv-x="430" />
<glyph unicode="&#xa0;" horiz-adv-x="430" />
<glyph unicode="!" horiz-adv-x="544" d="M113 1155q0 180 153.5 180t153.5 -180q0 -59 -20.5 -183t-52.5 -296t-46 -285h-70q-14 113 -45.5 285t-52 296t-20.5 183zM121 114.5q0 59.5 43 101.5t102.5 42t102.5 -42t43 -101.5t-43 -102.5t-102.5 -43t-102.5 43t-43 102.5z" />
<glyph unicode="&#x22;" horiz-adv-x="645" d="M82 899l24 160q12 94 48 201q10 33 38.5 54t59.5 21q37 0 62.5 -25.5t25.5 -64.5q0 -31 -14 -59q-43 -80 -117 -174l-96 -127zM350 899l25 160q14 111 47 201q12 35 38.5 55t57.5 20q37 0 63.5 -25.5t26.5 -64.5q0 -23 -16 -59q-39 -76 -115 -174l-96 -127z" />
<glyph unicode="#" horiz-adv-x="1191" d="M92 391v94h238l47 156l29 107h-250v94h276l88 319l101 -31l-89 -288h248l90 319l99 -31l-86 -288h217v-94h-246l-41 -140l-33 -123h256v-94h-282l-82 -299l-101 31l80 268h-248l-81 -299l-99 31l80 268h-211zM428 485h252l45 156q2 6 5 17.5t9 35t11 39.5l4 15h-250 l-41 -140q-33 -123 -35 -123z" />
<glyph unicode="$" horiz-adv-x="1101" d="M111 418l45 4q135 -293 317 -361l37 431q-184 76 -246 120q-143 102 -143 285q0 172 134 279.5t308 109.5l10 146l78 -11q-12 -137 -12 -139q150 -12 268 -78l19 -315l-45 -6q-129 244 -250 303l-35 -400q14 -6 55 -22t57.5 -22.5t54.5 -24t55.5 -28.5t47 -31.5t45 -38 t36 -44t29.5 -53t16 -60.5t7 -73q0 -178 -130 -295t-328 -125l-13 -172l-75 8q14 164 14 166q-215 8 -346 62zM358 1030q0 -135 174 -215q0 12 2.5 30.5t5.5 71t6 96.5t6 91t5 76l2 26q-92 8 -146.5 -39t-54.5 -137zM545 47q106 -4 164.5 50.5t58.5 142.5q0 84 -50 134 t-147 93z" />
<glyph unicode="%" horiz-adv-x="1527" d="M59 938q0 147 97.5 246.5t253.5 99.5q154 0 240.5 -94t86.5 -248q0 -147 -95 -247.5t-253 -100.5q-154 0 -242 95t-88 249zM233 -8l500 651l498 664l63 -50l-499 -649l-500 -665zM268 936q0 -291 133 -291q70 0 98.5 69.5t28.5 227.5q0 291 -133 291q-127 0 -127 -297z M791 311q0 147 96 246.5t254 99.5q154 0 240.5 -94t86.5 -248q0 -147 -95 -247.5t-253 -100.5q-154 0 -241.5 95.5t-87.5 248.5zM999 309q0 -291 134 -291q68 0 97.5 70t29.5 227q0 291 -134 291q-127 0 -127 -297z" />
<glyph unicode="&#x26;" horiz-adv-x="1398" d="M43 315q0 119 80 207t196 137l43 21q-125 150 -124 281q0 139 108.5 232t282.5 93q160 0 248 -81t88 -181q0 -152 -246 -289l-60 -33l269 -368l145 307l-123 55v27h439v-29l-125 -51l-279 -377q78 -104 140.5 -149t131.5 -45q53 0 86 6l3 -33q-96 -76 -240 -76 q-186 0 -334 170q-154 -170 -348 -170q-152 0 -266.5 98.5t-114.5 247.5zM287 408q0 -111 78.5 -188t214.5 -77q93 0 159 33l-348 459l-16 -17q-88 -88 -88 -210zM461 1059q0 -84 96 -219l70 -99q118 127 118 299q0 86 -40.5 136.5t-106.5 50.5q-61 0 -99 -48.5t-38 -119.5z " />
<glyph unicode="'" horiz-adv-x="378" d="M82 899l24 160q12 94 48 201q10 33 38.5 54t59.5 21q37 0 62.5 -25.5t25.5 -64.5q0 -31 -14 -59q-43 -80 -117 -174l-96 -127z" />
<glyph unicode="(" horiz-adv-x="743" d="M96 578q0 350 190.5 597.5t471.5 342.5l18 -45q-209 -92 -321.5 -332.5t-112.5 -562.5q0 -319 112.5 -561t321.5 -334l-18 -43q-281 94 -471.5 341.5t-190.5 596.5z" />
<glyph unicode=")" horiz-adv-x="745" d="M-31 -317q209 92 321.5 333.5t112.5 561.5q0 322 -112.5 562t-321.5 333l19 45q281 -94 471 -342t190 -598q0 -348 -190.5 -596t-470.5 -342z" />
<glyph unicode="*" horiz-adv-x="688" d="M47 848q-2 61 64 102q59 33 174 45v11q-111 12 -174 47q-66 41 -64 102l14 27q57 33 121 -6q59 -33 129 -127l8 6q-47 104 -47 174q0 78 56 106h30q57 -31 58 -106q0 -70 -47 -174l8 -6q70 94 127 127q68 39 123 6l14 -27q0 -61 -66 -102q-61 -35 -174 -47v-11 q117 -12 174 -45q66 -41 66 -102l-14 -27q-53 -33 -123 4q-59 35 -127 129l-8 -6q47 -106 47 -174q0 -76 -58 -108h-30q-55 33 -56 108q0 68 47 174l-8 6q-70 -94 -129 -129q-68 -37 -121 -4z" />
<glyph unicode="+" horiz-adv-x="1034" d="M84 569v117h375v371h119v-371h372v-117h-372v-376h-119v376h-375z" />
<glyph unicode="," horiz-adv-x="475" d="M92 109q0 61 42 104t104 43q76 0 120.5 -55.5t44.5 -143.5q0 -225 -288 -350l-23 29q162 139 199 262l-4 4l-27 -8q-27 -8 -51 -8q-51 0 -84 34.5t-33 88.5z" />
<glyph unicode="-" horiz-adv-x="665" d="M78 410v165h510v-165h-510z" />
<glyph unicode="." horiz-adv-x="425" d="M70 112.5q0 59.5 43 101.5t102 42t101 -42t42 -101.5t-42 -102.5t-101 -43t-102 43t-43 102.5z" />
<glyph unicode="/" horiz-adv-x="731" d="M-43 -397l420 954l407 961l80 -35l-420 -957l-407 -958z" />
<glyph unicode="0" horiz-adv-x="1165" d="M57 627q0 289 140.5 474t390.5 185q258 0 388 -182t130 -477q0 -287 -141.5 -472.5t-391.5 -185.5q-256 0 -386 182.5t-130 475.5zM350 626.5q0 -331.5 66.5 -460.5t181.5 -129q94 0 154.5 144.5t60.5 445.5q0 303 -69.5 447.5t-178.5 144.5q-100 0 -157.5 -130.5 t-57.5 -462z" />
<glyph unicode="1" horiz-adv-x="796" d="M66 1180v24l469 68l8 -6v-1141l215 -92v-33h-690v33l215 92v946z" />
<glyph unicode="2" horiz-adv-x="1036" d="M16 57q252 203 392 357q217 239 217 417q0 115 -64.5 182.5t-173.5 67.5q-147 0 -287 -110l-20 24q152 291 420 291q190 0 292.5 -110.5t102.5 -270.5q0 -154 -135 -310.5t-441 -350.5l5 -13h462l146 185l26 -6l-67 -410h-864z" />
<glyph unicode="3" horiz-adv-x="1011" d="M43 209q0 70 44 111.5t106 41.5q102 0 137 -78.5t12 -191.5q51 -47 131 -47q84 0 143.5 61.5t59.5 155.5q0 119 -95.5 218.5t-322.5 131.5v25q201 70 285 140.5t84 152.5q0 66 -54.5 111.5t-156.5 45.5q-123 0 -291 -73l-19 22q80 117 196 183.5t243 66.5 q158 0 242.5 -74.5t84.5 -181.5q0 -98 -61 -171t-201 -124v-14q310 -78 310 -361q0 -180 -133.5 -285.5t-327.5 -105.5q-186 0 -301 68.5t-115 171.5z" />
<glyph unicode="4" horiz-adv-x="1095" d="M25 367l763 917l35 -12v-760h195v-182h-195v-205l213 -92v-33h-696v33l217 92v205h-516zM225 512h332v399h-4z" />
<glyph unicode="5" horiz-adv-x="1032" d="M72 209q0 70 44 111.5t105 41.5q102 0 137 -78.5t11 -191.5q43 -47 120 -47q82 0 143.5 72.5t61.5 195.5q0 127 -84 204t-245 77q-92 0 -197 -31l-35 8l70 682h579l78 101l29 -8l-31 -328h-590l-22 -221l8 -4q115 14 192 14q256 0 374 -107.5t118 -287.5 q0 -186 -131 -314.5t-338 -128.5q-184 0 -290.5 68.5t-106.5 171.5z" />
<glyph unicode="6" horiz-adv-x="1101" d="M76 461q0 338 248 577q195 186 563 271l10 -47q-199 -86 -317 -197q-68 -63 -109 -135t-78 -176l8 -4q106 68 236 67q178 0 280.5 -111.5t102.5 -265.5q0 -201 -131 -336t-340 -135q-201 0 -337 125t-136 367zM344 446q0 -170 61.5 -289.5t167.5 -119.5q185 0 185 315 q0 358 -248 359q-66 0 -139 -37q-27 -86 -27 -228z" />
<glyph unicode="7" horiz-adv-x="995" d="M80 897l55 416l23 8l43 -68h745l17 -20l-547 -1264h-264l301 500l317 543h-565l-103 -121z" />
<glyph unicode="8" horiz-adv-x="1040" d="M88 274q0 104 69.5 188.5t196.5 133.5q-231 135 -231 350q0 150 114.5 245t299.5 95q180 0 279 -83.5t99 -198.5q0 -186 -262 -289q158 -80 231.5 -170t73.5 -211q0 -147 -125.5 -256t-326.5 -109q-199 0 -308.5 87t-109.5 218zM311 305q0 -115 59.5 -191.5t164.5 -76.5 q76 0 121.5 55t45.5 139q0 90 -73.5 180.5t-229.5 159.5q-88 -129 -88 -266zM358 1036q0 -156 244 -293q59 72 83 128.5t24 129.5q0 92 -49.5 155t-135.5 63q-74 0 -120 -47.5t-46 -135.5z" />
<glyph unicode="9" horiz-adv-x="1091" d="M74 829q0 190 130 323.5t339 133.5q211 0 342 -131t131 -360q0 -342 -248 -578q-203 -195 -582 -270l-10 45q209 80 336 196q115 106 193 332l-9 4q-90 -68 -219 -67q-178 0 -290.5 102.5t-112.5 269.5zM336 903q0 -340 260 -340q55 0 127 37q22 66 22 209q0 178 -58 294 t-159 116q-193 0 -192 -316z" />
<glyph unicode=":" horiz-adv-x="425" d="M70 112.5q0 59.5 43 101.5t102 42t101 -42t42 -101.5t-42 -102.5t-101 -43t-102 43t-43 102.5zM70 739q0 59 43 101.5t102 42.5t101 -42.5t42 -101.5q0 -61 -42 -103t-101 -42t-102 42t-43 103z" />
<glyph unicode=";" horiz-adv-x="475" d="M92 109q0 61 42 104t104 43q76 0 120.5 -55.5t44.5 -143.5q0 -225 -288 -350l-23 29q162 139 199 262l-4 4l-27 -8q-27 -8 -51 -8q-51 0 -84 34.5t-33 88.5zM111 739q0 59 43 101.5t102 42.5t102 -42.5t43 -101.5q0 -61 -43 -103t-102 -42t-102 42t-43 103z" />
<glyph unicode="&#x3c;" horiz-adv-x="1034" d="M154 590v76l692 362l24 -110l-573 -291l573 -287l-24 -109z" />
<glyph unicode="=" horiz-adv-x="1034" d="M84 379v117h866v-117h-866zM84 758v114h866v-114h-866z" />
<glyph unicode="&#x3e;" horiz-adv-x="1034" d="M164 340l573 291l-573 287l24 108l693 -358v-76l-693 -363z" />
<glyph unicode="?" horiz-adv-x="878" d="M41 1087q0 111 115.5 179.5t275.5 68.5q168 0 274.5 -89t106.5 -224q0 -184 -229 -305q-106 -55 -148.5 -95t-42.5 -87q0 -41 33 -69t78 -28q43 0 92 6l6 -20q-74 -63 -186 -64q-104 0 -170 58.5t-66 148.5q0 84 58.5 154t183.5 147q92 57 130 108.5t38 123.5 q0 70 -49 116t-123 46q-70 0 -127 -39q37 -74 37 -138q0 -66 -39 -107.5t-100.5 -41.5t-104.5 43t-43 108zM248 114.5q0 59.5 43 101.5t102.5 42t102.5 -42t43 -101.5t-43 -102.5t-102.5 -43t-102.5 43t-43 102.5z" />
<glyph unicode="@" horiz-adv-x="1697" d="M76 391q0 233 120.5 432t322.5 311.5t433 112.5q309 0 489.5 -177t180.5 -423q0 -145 -58.5 -275t-176 -216t-269.5 -86q-184 0 -198 139l-11 4q-51 -70 -100 -100.5t-119 -30.5q-96 0 -154.5 67.5t-58.5 180.5q0 184 154.5 350t335.5 166q76 0 131 -31l102 39l14 -4 l-88 -531q-29 -156 86 -155q100 0 170 119.5t70 312.5q0 246 -140.5 412t-416.5 166q-272 0 -455.5 -204t-183.5 -515q0 -324 192.5 -497t479.5 -173q248 0 465 121l22 -33q-242 -201 -565 -201q-152 0 -289 45t-246.5 132.5t-174 226.5t-64.5 315zM688 375q0 -158 113 -158 q49 0 119 53l65 394q-53 88 -125 88q-55 0 -97 -70t-58.5 -151.5t-16.5 -155.5z" />
<glyph unicode="A" horiz-adv-x="1312" d="M-35 0v35l139 67l484 1215h129l457 -1223l163 -59v-35h-647v35l162 49l-123 356h-364l-119 -344l137 -61v-35h-418zM391 514h314l-156 447h-4z" />
<glyph unicode="B" horiz-adv-x="1337" d="M57 0v35l179 49v1137l-179 49v35h658q246 0 365.5 -81t119.5 -206q0 -254 -369 -320v-10q205 -16 313.5 -108t108.5 -215q0 -158 -119.5 -261.5t-365.5 -103.5h-711zM543 80q68 -14 141 -14q113 0 173.5 75.5t60.5 216.5q0 131 -76 209t-209 78h-90v-565zM543 711l108 4 q113 4 178.5 72.5t65.5 193.5q0 123 -66.5 187.5t-177.5 66.5l-108 2v-526z" />
<glyph unicode="C" horiz-adv-x="1372" d="M92 639q0 289 205 492.5t516 203.5q193 0 313 -63l70 69h29l28 -495l-51 -4q-76 193 -189.5 304t-236.5 111q-147 0 -246.5 -143t-99.5 -440q0 -287 112.5 -452t311.5 -165q68 0 147 19l244 323l31 -8l-43 -340q-205 -82 -438 -82q-319 0 -511 181.5t-192 488.5z" />
<glyph unicode="D" horiz-adv-x="1511" d="M57 0v35l179 49v1137l-179 49v35h631q348 0 539.5 -182.5t191.5 -469.5q0 -285 -202.5 -469t-542.5 -184h-617zM543 74l149 8q188 10 288.5 144t100.5 427q0 545 -436 574l-102 6v-1159z" />
<glyph unicode="E" horiz-adv-x="1335" d="M57 0v35l179 49v1137l-179 49v35h1110l29 -441l-39 -10l-160 225q-57 82 -110 113t-158 35l-186 8v-543h69q86 0 131 36t80 132l25 68h43v-551h-43l-25 63q-37 96 -81 132t-130 36h-69v-536l252 12q84 4 140 36t109 99l166 213l39 -8l-39 -424h-1153z" />
<glyph unicode="F" horiz-adv-x="1269" d="M59 0v35l177 49v1137l-177 49v35h1110l29 -441l-39 -10l-162 225q-57 82 -109 113t-157 35l-188 8v-576h71q96 0 139.5 35t77.5 133l25 70h43v-551h-45l-23 64q-35 98 -77.5 133t-139.5 35h-71v-494l190 -49v-35h-674z" />
<glyph unicode="G" horiz-adv-x="1445" d="M92 639q0 289 205 492.5t516 203.5q199 0 320 -63l69 69h43l21 -495l-52 -4q-205 415 -437 415h-1q-150 0 -248 -142t-98 -441q0 -303 128 -446.5t327 -143.5q49 0 106 10v418l-164 51v33h584v-33l-125 -51v-522l-33 -8l-176 100q-166 -113 -346 -113 q-270 0 -454.5 188.5t-184.5 481.5z" />
<glyph unicode="H" horiz-adv-x="1609" d="M57 0v35l179 49v1137l-179 49v35h637v-35l-151 -49v-498h524v498l-152 49v35h637v-35l-178 -49v-1137l178 -49v-35h-637v35l152 49v547h-524v-547l151 -49v-35h-637z" />
<glyph unicode="I" horiz-adv-x="819" d="M78 0v35l178 49v1137l-178 49v35h661v-35l-176 -49v-1137l176 -49v-35h-661z" />
<glyph unicode="J" horiz-adv-x="1093" d="M18 186q0 72 48.5 123t111.5 51q102 0 150 -82q39 -67 39 -179q0 -27 -2 -58q117 37 161.5 109.5t44.5 220.5v850l-178 49v35h658v-35l-172 -49v-758q0 -129 -26 -213t-89 -152q-53 -57 -167 -96t-241 -39q-168 0 -253 63.5t-85 159.5z" />
<glyph unicode="K" horiz-adv-x="1468" d="M57 0v35l179 49v1137l-179 49v35h637v-35l-151 -49v-529h125l366 488l-143 90v35h520v-35l-176 -74l-377 -414l461 -676l149 -71v-35h-596v35l95 51l-318 512h-106v-514l151 -49v-35h-637z" />
<glyph unicode="L" horiz-adv-x="1247" d="M57 0v35l179 49v1137l-179 49v35h664v-35l-178 -49v-1149l182 8q150 8 250 139l174 232l35 -7l-47 -444h-1080z" />
<glyph unicode="M" horiz-adv-x="1865" d="M66 0v35l176 67v1115l-176 53v35h555l79 -211l244 -660h10l244 660l78 211h528v-35l-176 -49v-1137l176 -49v-35h-637v35l154 49v1079h-14l-441 -1163h-57l-467 1163h-14v-1061l174 -67v-35h-436z" />
<glyph unicode="N" horiz-adv-x="1525" d="M72 0v35l174 74v1093l-162 68v35h424l166 -209l524 -643h14v743l-174 74v35h437v-35l-175 -74v-1208h-114l-168 209l-670 807h-14v-895l174 -74v-35h-436z" />
<glyph unicode="O" horiz-adv-x="1499" d="M92 653q0 289 178.5 485.5t485.5 196.5q319 0 485 -193.5t166 -488.5q0 -291 -178 -487.5t-486 -196.5q-317 0 -484 193.5t-167 490.5zM428 653.5q0 -331.5 87 -474t251 -142.5q143 0 224 157.5t81 458.5t-90 459t-248 158q-150 0 -227.5 -142.5t-77.5 -474z" />
<glyph unicode="P" horiz-adv-x="1292" d="M57 0v35l179 49v1137l-179 49v35h682q254 0 374 -108.5t120 -274.5q0 -162 -131 -278t-346 -116q-94 0 -213 19v-463l202 -49v-35h-688zM543 618l129 5q117 2 180 81.5t63 217t-63.5 221.5t-179.5 86l-129 4v-615z" />
<glyph unicode="Q" horiz-adv-x="1499" d="M92 653q0 289 178.5 485.5t485.5 196.5q319 0 485 -193.5t166 -488.5q0 -240 -124 -420t-345 -239q94 -162 172 -217q98 -70 240 -99l-9 -30h-233q-223 0 -307 67q-55 43 -131 193l-35 67q-264 35 -403.5 222.5t-139.5 455.5zM428 653.5q0 -331.5 87 -474t251 -142.5 q143 0 224 157.5t81 458.5t-90 459t-248 158q-150 0 -227.5 -142.5t-77.5 -474z" />
<glyph unicode="R" horiz-adv-x="1398" d="M57 0v35l179 49v1137l-179 49v35h772q205 0 314.5 -93.5t109.5 -226.5q0 -125 -96 -219t-291 -125v-10q133 -20 204 -82t106 -164q66 -195 124 -268q49 -57 119 -82v-35h-248q-115 0 -169 48t-107 181l-84 211q-33 84 -88 116t-158 32h-22v-504l176 -49v-35h-662z M543 657l127 5q119 4 194.5 76.5t75.5 203.5t-76 207t-194 80l-127 4v-576z" />
<glyph unicode="S" horiz-adv-x="1114" d="M98 436l54 4q86 -201 199.5 -297t226.5 -96q104 0 160.5 58.5t56.5 144.5q0 90 -47.5 142t-186.5 110q-23 8 -65.5 24.5t-77.5 30.5t-64 29q-109 53 -169 144t-60 202q0 168 129 285.5t299 117.5q133 0 262 -69l78 69h41l35 -411l-51 -6q-170 339 -362 339h-1 q-88 0 -138 -49t-50 -129q0 -78 38.5 -131t143.5 -100q31 -14 111.5 -45t121.5 -51q248 -119 248 -346q0 -188 -136 -312.5t-331 -124.5q-162 0 -321 78l-76 -72h-41z" />
<glyph unicode="T" horiz-adv-x="1394" d="M49 848l57 457h1182l58 -457l-46 -10l-186 252q-59 80 -107.5 108.5t-125.5 34.5l-27 2v-1151l184 -49v-35h-676v35l185 49v1151l-35 -2q-78 -4 -125 -34t-106 -109l-189 -252z" />
<glyph unicode="U" horiz-adv-x="1462" d="M39 1270v35h661v-35l-178 -49v-795q0 -332 328 -332q156 0 242 92.5t86 262.5v753l-148 68v35h385v-35l-149 -68v-772q0 -219 -136.5 -340t-361.5 -121q-266 0 -409.5 124t-143.5 374v754z" />
<glyph unicode="V" horiz-adv-x="1374" d="M6 1270v35h649v-35l-161 -49l317 -863l301 832l-137 80v35h403v-35l-125 -68l-510 -1214h-75l-498 1222z" />
<glyph unicode="W" horiz-adv-x="1923" d="M2 1270v35h629v-35l-142 -49l211 -828h5l237 635l-55 182l-125 60v35h586v-35l-150 -49l246 -818h4l215 787l-135 80v35h401v-35l-125 -68l-420 -1214h-71l-326 909h-4l-358 -909h-72l-387 1222z" />
<glyph unicode="X" horiz-adv-x="1441" d="M49 0v35l166 55l391 498l-409 635l-148 47v35h641v-35l-147 -41l250 -424l264 409l-131 56v35h477v-35l-174 -56q-383 -487 -383 -489l428 -643l147 -47v-35h-643v35l150 43l-271 436l-268 -424l129 -55v-35h-469z" />
<glyph unicode="Y" horiz-adv-x="1304" d="M-6 1270v35h647v-35l-152 -62l285 -510l248 498l-123 74v35h432v-35l-137 -68l-367 -581v-523l185 -63v-35h-674v35l182 63v457l-373 643z" />
<glyph unicode="Z" horiz-adv-x="1290" d="M53 20l801 1199l-283 -7q-80 -2 -139 -37.5t-137 -130.5l-131 -157l-37 10l35 408h1052l9 -21l-793 -1202l348 6q80 2 133.5 40t112.5 120l154 217l30 -8l-32 -457h-1115z" />
<glyph unicode="[" horiz-adv-x="661" d="M207 -360v1878h573v-78h-342v-1723h342v-77h-573z" />
<glyph unicode="\" horiz-adv-x="731" d="M-20 1483l79 35l408 -961l420 -954l-80 -35l-408 958z" />
<glyph unicode="]" horiz-adv-x="661" d="M-119 -283h342v1723h-342v78h574v-1878h-574v77z" />
<glyph unicode="^" horiz-adv-x="653" d="M33 1065l278 375h43l264 -375l-30 -27l-262 152l-263 -152z" />
<glyph unicode="_" horiz-adv-x="901" d="M0 0v92h901v-92h-901z" />
<glyph unicode="`" horiz-adv-x="487" d="M80 1381.5q6 50.5 49 78.5q41 27 91 10.5t77 -65.5q60 -108 117 -354l-27 -19q-215 170 -276 252q-37 47 -31 97.5z" />
<glyph unicode="a" d="M55 182q0 137 142.5 213t384.5 78v189q0 96 -48.5 147t-168.5 51q-51 0 -101 -8q86 -68 86 -160q0 -53 -37 -92t-92 -39q-61 0 -97 40t-36 95q0 119 150.5 192t314.5 73q139 0 215 -72t76 -209v-518q0 -61 30.5 -94t108.5 -41l4 -25q-152 -39 -227 -39q-158 0 -168 129 l-10 4q-125 -129 -279 -129q-115 0 -181.5 59.5t-66.5 155.5zM330 238q0 -66 35.5 -105t93.5 -39q53 0 123 39v291q-137 -8 -194.5 -53t-57.5 -133z" />
<glyph unicode="b" horiz-adv-x="1130" d="M-8 1386v21l389 111l8 -7v-680l8 -6q139 135 297 135q1 0 1 1q157 0 263 -127t105 -336q0 -238 -157.5 -384.5t-411.5 -146.5q-160 0 -367 33v1290zM389 131q74 -90 191 -90q92 0 147 93t55 294q0 377 -254 377q-61 0 -139 -19v-655z" />
<glyph unicode="c" horiz-adv-x="978" d="M61 444q0 217 146.5 367t376.5 150q158 0 255 -65t97 -157q0 -63 -39 -108t-98 -45q-66 0 -107 43t-41 102q0 82 51 154q-20 4 -61 4q-135 0 -219 -95.5t-84 -289.5q0 -176 86 -285.5t213 -109.5q98 0 281 59l12 -25q-188 -176 -398 -176q-201 0 -336 133t-135 344z" />
<glyph unicode="d" horiz-adv-x="1163" d="M68 436q0 233 150.5 379t361.5 146q92 0 170 -23v352l-134 96v21l388 111l10 -7v-1398l135 -52v-20l-369 -76l-8 4l-16 111l-8 4l-31 -25q-115 -92 -244 -92q-170 0 -287.5 122t-117.5 347zM348 502q0 -397 270 -398q63 0 132 43v644q-78 100 -189 100q-88 0 -150.5 -95 t-62.5 -294z" />
<glyph unicode="e" horiz-adv-x="1021" d="M61 444q0 217 148.5 367t339.5 150q207 0 313 -123q103 -119 103 -310v-14h-627q2 -205 63.5 -305t225.5 -100q121 0 315 53l12 -27q-96 -74 -207.5 -121t-207.5 -47q-221 0 -349.5 131t-128.5 346zM340 573l367 23q-6 299 -172 299q-82 0 -134.5 -88.5t-60.5 -233.5z " />
<glyph unicode="f" horiz-adv-x="690" d="M8 811v35l185 92v72q0 276 184 422q109 86 272 86q119 0 186.5 -57.5t67.5 -129.5q0 -135 -129 -135q-66 0 -118 64.5t-74 181.5q-72 -33 -99.5 -105.5t-27.5 -222.5v-182h256v-121h-256v-733l153 -49v-29h-538v29l123 49v733h-185z" />
<glyph unicode="g" horiz-adv-x="1050" d="M6 -201q0 125 225 189l-2 12q-123 23 -123 115q0 102 166 266v10q-90 39 -143 108.5t-53 155.5q0 135 117.5 220.5t300.5 85.5q176 0 286 -76q160 127 248 127q63 0 97 -35t34 -86q0 -47 -33.5 -82t-83 -35t-81 27.5t-35.5 75.5l-101 -21l-4 -8q82 -78 82 -193 q0 -137 -114.5 -222t-294.5 -85q-100 0 -177 25q-22 -39 -22 -98v-5q0 -72 125 -73l258 -4q162 -2 247 -68t85 -178q0 -135 -160 -253t-404 -118q-201 0 -320.5 65.5t-119.5 157.5zM227 -150q0 -200 307 -200h3q127 0 198.5 50t71.5 130q0 59 -52.5 100t-162.5 43l-316 2 q-49 -41 -49 -125zM334 662q0 -141 39 -196.5t121 -55.5q66 0 103.5 68.5t37.5 183.5q0 239 -151 239h-1q-74 0 -111.5 -53t-37.5 -186z" />
<glyph unicode="h" horiz-adv-x="1148" d="M18 1386v21l390 111l8 -7v-710l8 -4q172 164 340 164q129 0 192.5 -81t63.5 -202v-600l123 -49v-29h-488v29l103 49v518q0 199 -150 199q-98 0 -192 -39v-678l102 -49v-29h-487v29l123 49v1212z" />
<glyph unicode="i" horiz-adv-x="571" d="M35 0v29l129 49v686l-121 96v21l375 86l8 -6v-883l123 -49v-29h-514zM135 1247q0 68 49 120t119 52q68 0 110 -44t42 -111.5t-49.5 -118.5t-118.5 -51q-66 0 -109 43.5t-43 109.5z" />
<glyph unicode="j" horiz-adv-x="567" d="M-217 -262q0 57 38 90t97 33q70 0 113 -58.5t55 -152.5q53 27 70.5 81t17.5 167v866l-121 96v21l375 86l8 -6v-869q0 -168 -15 -241.5t-63 -135.5q-100 -137 -329 -137q-131 0 -188.5 46t-57.5 114zM145 1247q0 68 49.5 120t118.5 52q66 0 109 -45t43 -110 q0 -68 -49 -119t-119 -51q-66 0 -109 43.5t-43 109.5z" />
<glyph unicode="k" horiz-adv-x="1081" d="M20 1386v21l388 111l8 -7v-1001h67l240 324l-113 67v29h443v-29l-123 -49l-273 -274l353 -506l100 -43v-29h-483v29l78 43l-232 350h-57v-344l90 -49v-29h-475v29l123 49v1212z" />
<glyph unicode="l" horiz-adv-x="567" d="M20 1386v21l388 111l8 -7v-1433l123 -49v-29h-514v29l129 49v1212z" />
<glyph unicode="m" horiz-adv-x="1712" d="M41 0v29l123 49v686l-123 96v21l365 86l8 -6l-4 -164l8 -4q178 170 334 170q195 0 235 -170l8 -5q190 178 338 179q129 0 189.5 -82t60.5 -205v-602l123 -49v-29h-487v29l102 49v520q0 98 -30.5 148.5t-119.5 50.5q-33 0 -55 -5.5t-62 -22.5t-55 -24v-667l103 -49v-29 h-467v29l102 49v520q0 100 -25.5 149.5t-113.5 49.5q-78 0 -172 -39v-680l102 -49v-29h-487z" />
<glyph unicode="n" horiz-adv-x="1148" d="M41 0v29l123 49v686l-123 96v21l365 86l8 -6l-4 -166l8 -4q178 170 350 170q129 0 190.5 -81t61.5 -202v-600l123 -49v-29h-488v29l103 49v518q0 96 -32 147.5t-114 51.5q-92 0 -186 -39v-678l102 -49v-29h-487z" />
<glyph unicode="o" horiz-adv-x="1105" d="M61 465q0 199 135.5 347.5t369 148.5t356 -142.5t122.5 -353.5q0 -199 -135 -348.5t-368.5 -149.5t-356.5 142.5t-123 355.5zM342 465q0 -201 52 -315.5t158.5 -114.5t159 114.5t52.5 315.5t-52.5 315.5t-159 114.5t-158.5 -114.5t-52 -315.5z" />
<glyph unicode="p" horiz-adv-x="1146" d="M20 -397l123 49v1110l-123 96v21l365 88l8 -6l-2 -138l8 -4q150 141 318 142q152 0 257 -131t105 -338q0 -217 -148.5 -371t-398.5 -154q-61 0 -126 13v-328l143 -49v-27h-529v27zM406 145q73 -112 190 -112h2q86 0 143.5 96t57.5 299q0 377 -254 377q-61 0 -139 -19 v-641z" />
<glyph unicode="q" horiz-adv-x="1130" d="M68 434q0 217 148.5 372t397.5 155q115 0 256 -54l121 99l21 -7v-1347l123 -49v-27h-527v27l142 49v424l-9 4l-24 -21q-109 -92 -236 -92q-184 0 -298.5 128t-114.5 339zM348 502q0 -398 270 -398q53 0 132 19v684q-74 86 -189 86q-88 0 -150.5 -96.5t-62.5 -294.5z" />
<glyph unicode="r" horiz-adv-x="876" d="M41 0v29l123 49v686l-121 96v21l365 86l8 -6l-8 -189l8 -4q66 98 143.5 146.5t149.5 48.5q68 0 109.5 -41t41.5 -111q0 -66 -38 -110t-101 -44q-59 0 -100 37t-56 103q-82 -6 -139 -76v-643l141 -49v-29h-526z" />
<glyph unicode="s" horiz-adv-x="849" d="M80 303l41 4q115 -156 184.5 -213t147.5 -57q61 0 96 39t35 100q0 29 -14.5 55.5t-30 42t-53 36t-57 28.5t-71.5 29q-66 27 -102.5 46t-83.5 55t-68.5 85t-21.5 113q0 123 108.5 209t272.5 86q154 0 256 -37l6 -254l-41 -8q-100 135 -152.5 182t-121.5 47q-57 0 -91 -38 t-34 -87t37.5 -88t72.5 -55.5t117 -49.5q63 -25 101 -44t84 -54t68.5 -84t22.5 -112q0 -137 -113.5 -224.5t-266.5 -87.5q-180 0 -322 56z" />
<glyph unicode="t" horiz-adv-x="743" d="M8 805v31l213 190l180 205h27v-301h311v-125h-311v-504q0 -131 57 -172q53 -37 148 -37q16 0 54 1t54 1l4 -35q-55 -35 -160.5 -63.5t-195.5 -28.5q-223 0 -223 238v600h-158z" />
<glyph unicode="u" horiz-adv-x="1142" d="M27 860v21l370 86l9 -6v-627q0 -96 31.5 -147.5t115.5 -51.5q88 0 184 37v608l-116 80v21l370 86l8 -6v-826l123 -59v-21l-364 -90l-8 4l4 164l-9 6q-180 -172 -348 -172q-131 0 -192.5 82t-61.5 203v528z" />
<glyph unicode="v" horiz-adv-x="1030" d="M-14 901v29h532v-29l-123 -53l207 -547h8l95 250l96 283l-109 67v29h357v-29l-129 -72l-371 -852h-70l-370 871z" />
<glyph unicode="w" horiz-adv-x="1511" d="M-2 901v29h500v-29l-90 -53l165 -553h11l168 360l-17 50q-16 47 -35 94l-16 49l-98 53v29h499v-29l-114 -53l133 -543h10l176 529l-106 67v29h370v-29l-133 -72l-370 -852h-58l-202 574l-287 -574h-58l-325 871z" />
<glyph unicode="x" horiz-adv-x="1060" d="M8 901v29h527v-29l-107 -41l160 -270l166 264l-95 47v29h373v-29l-131 -55l-268 -328l311 -446l113 -43v-29h-533v29l113 43l-166 270l-182 -268l98 -45v-29h-367v29l123 55l279 332l-301 444z" />
<glyph unicode="y" horiz-adv-x="1011" d="M0 901v29h530v-29l-120 -53l202 -563h11l182 549l-109 67v29h355v-29l-127 -72l-316 -776q-104 -256 -191 -366.5t-190 -110.5q-86 0 -133 42t-47 103q0 51 42 92.5t95 41.5q94 0 176 -99q80 100 119 187l10 22l-366 883z" />
<glyph unicode="z" horiz-adv-x="964" d="M27 29l594 823h-285l-217 -272l-37 12l18 338h818l18 -27l-594 -825h301l234 272l36 -12l-24 -338h-844z" />
<glyph unicode="{" horiz-adv-x="692" d="M23 561v47q147 16 196 75.5t49 211.5v256q0 188 109.5 264t363.5 103v-54q-133 -31 -182 -95t-49 -206v-200q0 -324 -283 -377v-4q283 -49 283 -375v-215q0 -139 50 -203.5t181 -95.5v-53q-254 27 -363.5 102.5t-109.5 263.5v268q0 152 -49 211.5t-196 75.5z" />
<glyph unicode="|" horiz-adv-x="552" d="M227 -494l6 965l-6 965h99l-7 -965l7 -965h-99z" />
<glyph unicode="}" horiz-adv-x="692" d="M-49 -307q131 31 181 95.5t50 203.5v215q0 326 283 375v4q-283 53 -283 377v200q0 141 -49 206t-182 95v54q254 -27 363.5 -103t109.5 -264v-256q0 -152 49 -211t197 -76v-47q-147 -16 -196.5 -75.5t-49.5 -211.5v-268q0 -188 -109.5 -264t-363.5 -102v53z" />
<glyph unicode="~" horiz-adv-x="739" d="M76 545q37 227 184 227q55 0 143.5 -36t124.5 -36q63 0 97 84l39 -10q-14 -229 -177 -229q-55 0 -147 36.5t-129 36.5q-61 0 -94 -86z" />
<glyph unicode="&#xa1;" horiz-adv-x="544" d="M113 -303q0 59 20.5 183t52 296t45.5 285h70q14 -113 46 -285t52.5 -296t20.5 -183q0 -180 -153.5 -180t-153.5 180zM121 737.5q0 59.5 43 102.5t102.5 43t102.5 -43t43 -102.5t-43 -101.5t-102.5 -42t-102.5 42t-43 101.5z" />
<glyph unicode="&#xa2;" horiz-adv-x="1036" d="M72 446q0 207 136 355.5t351 161.5l8 135l70 -6l-8 -131q145 -8 242.5 -71t97.5 -149q0 -63 -39 -108t-99 -45q-109 0 -137 100t43 199q-43 8 -112 2l-29 -443l-16 -323q39 -12 77 -12q25 0 51.5 3t46 7t50.5 13t46 15.5t50 18.5t49 16l13 -26q-193 -176 -390 -187 l-8 -168l-71 7l10 161q-186 12 -309 143.5t-123 331.5zM346 506q0 -121 46 -214t124 -140l19 299l20 423q-209 -71 -209 -368z" />
<glyph unicode="&#xa3;" horiz-adv-x="1150" d="M35 80q0 63 73.5 116.5t196.5 51.5q53 82 53 219q0 63 -24 125h-268v96h229q-43 86 -43 170q0 176 146.5 302t330.5 126q160 0 234.5 -57.5t74.5 -128.5q0 -55 -33.5 -96t-99.5 -41q-82 0 -136 68.5t-71 180.5q-78 -27 -123 -99.5t-45 -180.5q0 -106 74 -244h299v-96 h-276q0 -6 1 -19.5t1 -19.5q0 -205 -238 -317l4 -15q37 10 226.5 0t209.5 -10q82 0 123 47t64 150l45 -5q-6 -213 -79 -323.5t-204 -110.5q-184 0 -415 178q-29 -76 -85.5 -127t-121.5 -51q-61 0 -92 31t-31 80z" />
<glyph unicode="&#xa4;" horiz-adv-x="1241" d="M45 449v92h152v45q0 31 4 92h-156v92h168q47 238 208 377t388 139q170 0 262 -67.5t92 -163.5q0 -72 -38 -114t-107 -42q-109 0 -141.5 105.5t30.5 177.5q-45 29 -106 28q-106 0 -198.5 -106.5t-113.5 -333.5h482v-92h-486v-27q0 -57 7 -110h479v-92h-461 q39 -141 131 -218t225 -77q176 0 293 51l10 -27q-70 -94 -177 -151.5t-234 -57.5q-209 0 -361.5 125t-189.5 355h-162z" />
<glyph unicode="&#xa5;" horiz-adv-x="1312" d="M18 1219v34h631v-34l-178 -62l246 -479l268 467l-149 74v34h456v-34l-162 -80l-327 -488h346v-92h-358v-137h358v-92h-358v-232l210 -63v-35h-694v35l209 63v232h-358v92h358v137h-358v92h307l-293 496z" />
<glyph unicode="&#xa6;" horiz-adv-x="552" d="M227 371h99l-7 -432l7 -433h-99l6 433zM227 571l6 433l-6 432h99l-7 -432l7 -433h-99z" />
<glyph unicode="&#xa7;" horiz-adv-x="1069" d="M94 41q0 63 36 103t91 40q59 0 99 -37.5t40 -91t-30 -114.5q59 -66 172 -66q88 0 160.5 58.5t105.5 152.5q-670 344 -670 735q0 233 149.5 393t362.5 160q158 0 260.5 -75.5t102.5 -168.5q0 -61 -36 -101t-91 -40q-57 0 -98 38t-41 91q0 55 32 115q-59 66 -172 65 q-88 0 -160.5 -58t-105.5 -155q670 -344 670 -733q0 -233 -149.5 -393t-362.5 -160q-158 0 -261.5 76t-103.5 166zM281 961q0 -199 116.5 -381.5t386.5 -421.5q4 37 4 55q0 197 -116.5 380t-386.5 421q-4 -16 -4 -53z" />
<glyph unicode="&#xa8;" horiz-adv-x="739" d="M16 1227q0 63 45 111t111 48q63 0 102 -40.5t39 -104t-44.5 -112t-110.5 -48.5q-61 0 -101.5 42t-40.5 104zM408 1227q0 63 46 111t111 48q61 0 101.5 -40.5t40.5 -104t-46 -112t-112 -48.5q-61 0 -101 42t-40 104z" />
<glyph unicode="&#xa9;" horiz-adv-x="1503" d="M68 653q0 283 200.5 482.5t483 199.5t483.5 -199.5t201 -482.5q0 -285 -201 -484.5t-483.5 -199.5t-483 200t-200.5 484zM152 653q0 -252 176 -431t423.5 -179t424 179t176.5 431q0 250 -176.5 429.5t-424 179.5t-423.5 -179.5t-176 -429.5zM391 645q0 154 109.5 261.5 t277.5 107.5q96 0 162 -33l27 37h28l19 -277l-39 -2q-33 98 -90.5 161t-114.5 63q-176 0 -176 -299q0 -150 51 -233t152 -83q41 0 69 8l131 179l27 -5l-25 -200q-102 -39 -233 -39q-172 0 -273.5 95t-101.5 259z" />
<glyph unicode="&#xaa;" horiz-adv-x="780" d="M74 791q0 98 104.5 154t276.5 52v129q0 66 -33 100t-125 34h-59q63 -51 63 -121q0 -41 -26.5 -70t-71.5 -29q-47 0 -76 30t-29 71q0 90 113 142t235 52q100 0 159 -51t59 -145v-351q0 -49 18 -73.5t82 -30.5l2 -22q-96 -27 -172 -27q-111 0 -131 84l-8 2 q-94 -84 -195 -84q-84 0 -135 43t-51 111zM293 827q0 -47 25.5 -73.5t64.5 -26.5t72 25v209q-88 -8 -125 -40.5t-37 -93.5z" />
<glyph unicode="&#xab;" d="M61 449v20l404 387l47 -43l-231 -354l231 -357l-47 -41zM424 449v20l403 387l47 -43l-231 -354l231 -357l-47 -41z" />
<glyph unicode="&#xac;" horiz-adv-x="1034" d="M84 565v125h866v-125h-866z" />
<glyph unicode="&#xad;" horiz-adv-x="665" d="M78 410v165h510v-165h-510z" />
<glyph unicode="&#xae;" horiz-adv-x="770" d="M74 1028q0 133 89 222t222 89t222 -89t89 -222t-89 -222t-222 -89t-222 89t-89 222zM113 1028q0 -119 77.5 -198.5t194.5 -79.5t194.5 79.5t77.5 198.5t-77.5 199t-194.5 80t-194.5 -80t-77.5 -199zM215 877v22l53 14v240l-53 16v23h201q55 0 84.5 -21.5t29.5 -56.5 q0 -61 -84 -78v-12q59 -8 72 -57q8 -35 20.5 -49.5t41.5 -18.5v-22h-78q-51 0 -74 61l-14 43q-10 31 -49 31h-7v-99l45 -14v-22h-188zM358 1038h27q25 0 40 17.5t15 44.5q0 59 -55 63l-27 2v-127z" />
<glyph unicode="&#xaf;" horiz-adv-x="655" d="M45 1104v137h565v-137h-565z" />
<glyph unicode="&#xb0;" horiz-adv-x="786" d="M78 1028q0 123 85 215t238.5 92t230.5 -88t77 -217q0 -123 -84 -216t-238 -93q-152 0 -230.5 89t-78.5 218zM258 1026q0 -115 37 -183.5t100 -68.5q133 0 133 256q0 117 -35.5 184.5t-101.5 67.5q-63 0 -98 -69.5t-35 -186.5z" />
<glyph unicode="&#xb1;" horiz-adv-x="1034" d="M84 0v113h866v-113h-866zM84 623v116h375v371h119v-371h372v-116h-372v-377h-119v377h-375z" />
<glyph unicode="&#xb2;" horiz-adv-x="1024" d="M51 -410v2048h922v-2048h-922z" />
<glyph unicode="&#xb3;" horiz-adv-x="1024" d="M51 -410v2048h922v-2048h-922z" />
<glyph unicode="&#xb4;" horiz-adv-x="487" d="M90 1051q53 242 119 354q29 49 77 65.5t91 -10t48 -78t-32 -98.5q-61 -82 -276 -252z" />
<glyph unicode="&#xb6;" horiz-adv-x="1497" d="M98 608q0 352 232.5 565t640.5 213h499v-32l-227 -39v-1413l227 -37v-35h-512q-416 0 -638 211t-222 567zM940 -102l209 4v1413l-209 4v-1421z" />
<glyph unicode="&#xb7;" horiz-adv-x="473" d="M92 651q0 59 43 101.5t102.5 42.5t101.5 -42.5t42 -101.5q0 -61 -42 -103t-101.5 -42t-102.5 42t-43 103z" />
<glyph unicode="&#xb8;" horiz-adv-x="577" d="M-51 -420q0 35 21.5 58.5t54.5 23.5q35 0 54 -22.5t19 -57.5t-28 -67q20 -6 49 -7q43 0 71.5 33t28.5 86q0 55 -32.5 88t-80.5 33q-41 0 -65 -8l-25 24l316 279l74 -10l-197 -172q164 -39 164 -193q0 -88 -70 -149.5t-176 -61.5q-76 0 -127 37t-51 86z" />
<glyph unicode="&#xb9;" horiz-adv-x="1024" d="M51 -410v2048h922v-2048h-922z" />
<glyph unicode="&#xba;" horiz-adv-x="790" d="M39 987q0 143 95 245.5t269.5 102.5t261.5 -98t87 -252q0 -143 -96.5 -245.5t-270.5 -102.5t-260 98.5t-86 251.5zM258 989q0 -147 29.5 -223t105.5 -76q137 0 137 295q0 145 -29.5 222t-105.5 77q-137 0 -137 -295z" />
<glyph unicode="&#xbb;" d="M115 102l231 357l-231 354l47 43l403 -387v-20l-403 -388zM477 102l232 357l-232 354l47 43l404 -387v-20l-404 -388z" />
<glyph unicode="&#xbc;" horiz-adv-x="1024" d="M51 -410v2048h922v-2048h-922z" />
<glyph unicode="&#xbd;" horiz-adv-x="1024" d="M51 -410v2048h922v-2048h-922z" />
<glyph unicode="&#xbe;" horiz-adv-x="1024" d="M51 -410v2048h922v-2048h-922z" />
<glyph unicode="&#xbf;" horiz-adv-x="802" d="M31 -170q0 184 229 305q106 55 148.5 95t42.5 87q0 41 -33 69t-78 28q-43 0 -92 -6l-6 20q74 63 186 64q104 0 170 -58.5t66 -148.5q0 -84 -58.5 -154t-183.5 -147q-92 -57 -130 -108.5t-38 -123.5q0 -70 49 -116t123 -46q70 0 127 39q-37 74 -37 138q0 66 39 107.5 t100.5 41.5t104.5 -43t43 -109q0 -111 -116 -179t-275 -68q-168 0 -274.5 89t-106.5 224zM305 737.5q0 59.5 43 102.5t102.5 43t102.5 -43t43 -102.5t-43 -101.5t-102.5 -42t-102.5 42t-43 101.5z" />
<glyph unicode="&#xc0;" horiz-adv-x="1312" d="M-35 0v35l139 67l484 1215h129l457 -1223l163 -59v-35h-647v35l162 49l-123 356h-364l-119 -344l137 -61v-35h-418zM391 514h314l-156 447h-4zM426 1776.5q6 50.5 49 78.5q41 27 91 10.5t77 -65.5q60 -108 117 -354l-27 -19q-215 170 -276 252q-37 47 -31 97.5z" />
<glyph unicode="&#xc1;" horiz-adv-x="1312" d="M-35 0v35l139 67l484 1215h129l457 -1223l163 -59v-35h-647v35l162 49l-123 356h-364l-119 -344l137 -61v-35h-418zM391 514h314l-156 447h-4zM582 1446q53 242 118 354q29 49 77 65.5t91 -10t48.5 -78t-31.5 -98.5q-61 -82 -277 -252z" />
<glyph unicode="&#xc2;" horiz-adv-x="1312" d="M-35 0v35l139 67l484 1215h129l457 -1223l163 -59v-35h-647v35l162 49l-123 356h-364l-119 -344l137 -61v-35h-418zM360 1440l279 375h43l264 -375l-31 -27l-262 152l-262 -152zM391 514h314l-156 447h-4z" />
<glyph unicode="&#xc3;" horiz-adv-x="1312" d="M-35 0v35l139 67l484 1215h129l457 -1223l163 -59v-35h-647v35l162 49l-123 356h-364l-119 -344l137 -61v-35h-418zM348 1468q20 137 66.5 200t138.5 63q61 0 154.5 -41t136.5 -41q70 0 108 96l45 -12q-10 -141 -53 -205t-137 -64q-63 0 -162.5 44t-142.5 44 q-70 0 -109 -96zM391 514h314l-156 447h-4z" />
<glyph unicode="&#xc4;" horiz-adv-x="1312" d="M-35 0v35l139 67l484 1215h129l457 -1223l163 -59v-35h-647v35l162 49l-123 356h-364l-119 -344l137 -61v-35h-418zM311 1606q0 63 45 111t111 48q63 0 102 -41t39 -104.5t-44.5 -111.5t-110.5 -48q-61 0 -101.5 42t-40.5 104zM391 514h314l-156 447h-4zM702 1606 q0 63 46.5 111t111.5 48q61 0 101 -41t40 -104.5t-45.5 -111.5t-111.5 -48q-61 0 -101.5 42t-40.5 104z" />
<glyph unicode="&#xc5;" horiz-adv-x="1312" d="M-35 0v35l139 67l476 1196q-63 18 -98.5 70.5t-35.5 118.5q0 78 58.5 137t157.5 59q96 0 149 -55t53 -139q0 -63 -38 -116.5t-103 -74.5l451 -1204l163 -59v-35h-647v35l162 49l-123 356h-364l-119 -344l137 -61v-35h-418zM391 514h314l-156 447h-4zM582 1485 q0 -141 75 -142q41 0 56.5 36t15.5 110q0 141 -76 141q-71 0 -71 -145z" />
<glyph unicode="&#xc6;" horiz-adv-x="1943" d="M-68 0v35l140 67l772 1119l-178 49v35h1110l28 -441l-39 -10l-161 225q-57 82 -109.5 113t-157.5 35l-186 8v-543h70q86 0 131 36t80 132l24 68h43v-551h-45l-22 63q-35 96 -79 132t-132 36h-70v-536l252 12q84 4 140 36t110 99l166 213l39 -8l-39 -424h-1153v35l178 49 v408h-383l-250 -396l137 -61v-35h-416zM508 565h336v525h-4z" />
<glyph unicode="&#xc7;" horiz-adv-x="1372" d="M92 639q0 289 205 492.5t516 203.5q193 0 313 -63l70 69h29l28 -495l-51 -4q-76 193 -189.5 304t-236.5 111q-147 0 -246.5 -143t-99.5 -440q0 -287 112.5 -452t311.5 -165q76 0 147 19l244 323l31 -8l-43 -340q-168 -66 -342 -80l-131 -110q164 -39 164 -193 q0 -88 -70 -149.5t-176 -61.5q-76 0 -127 37t-51 86q0 35 21.5 58.5t53.5 23.5q35 0 54.5 -22.5t19.5 -57.5t-28 -67q23 -6 49 -7q43 0 71.5 33t28.5 86q0 55 -32.5 88t-80.5 33q-41 0 -65 -8l-25 24l236 205q-326 0 -518.5 180.5t-192.5 489.5z" />
<glyph unicode="&#xc8;" horiz-adv-x="1335" d="M57 0v35l179 49v1137l-179 49v35h1110l29 -441l-39 -10l-160 225q-57 82 -110 113t-158 35l-186 8v-543h69q86 0 131 36t80 132l25 68h43v-551h-43l-25 63q-37 96 -81 132t-130 36h-69v-536l252 12q84 4 140 36t109 99l166 213l39 -8l-39 -424h-1153zM422 1762 q6 50 49 79q41 27 91 10.5t77 -65.5q60 -108 117 -354l-27 -19q-215 170 -276 252q-37 47 -31 97z" />
<glyph unicode="&#xc9;" horiz-adv-x="1335" d="M57 0v35l179 49v1137l-179 49v35h1110l29 -441l-39 -10l-160 225q-57 82 -110 113t-158 35l-186 8v-543h69q86 0 131 36t80 132l25 68h43v-551h-43l-25 63q-37 96 -81 132t-130 36h-69v-536l252 12q84 4 140 36t109 99l166 213l39 -8l-39 -424h-1153zM578 1432 q53 242 118 354q29 49 77 65.5t91 -10t48.5 -78t-31.5 -98.5q-61 -82 -277 -252z" />
<glyph unicode="&#xca;" horiz-adv-x="1335" d="M57 0v35l179 49v1137l-179 49v35h1110l29 -441l-39 -10l-160 225q-57 82 -110 113t-158 35l-186 8v-543h69q86 0 131 36t80 132l25 68h43v-551h-43l-25 63q-37 96 -81 132t-130 36h-69v-536l252 12q84 4 140 36t109 99l166 213l39 -8l-39 -424h-1153zM356 1446l279 375 h43l264 -375l-31 -27l-262 152l-262 -152z" />
<glyph unicode="&#xcb;" horiz-adv-x="1335" d="M57 0v35l179 49v1137l-179 49v35h1110l29 -441l-39 -10l-160 225q-57 82 -110 113t-158 35l-186 8v-543h69q86 0 131 36t80 132l25 68h43v-551h-43l-25 63q-37 96 -81 132t-130 36h-69v-536l252 12q84 4 140 36t109 99l166 213l39 -8l-39 -424h-1153zM307 1608 q0 63 45 111t111 48q63 0 102 -40.5t39 -104t-44.5 -112t-110.5 -48.5q-61 0 -101.5 42t-40.5 104zM698 1608q0 63 46.5 111t111.5 48q61 0 101 -40.5t40 -104t-45.5 -112t-111.5 -48.5q-61 0 -101.5 42t-40.5 104z" />
<glyph unicode="&#xcc;" horiz-adv-x="819" d="M78 0v35l178 49v1137l-178 49v35h661v-35l-176 -49v-1137l176 -49v-35h-661zM178 1762q6 50 49 79q41 27 91.5 10.5t76.5 -65.5q60 -108 117 -354l-27 -19q-215 170 -276 252q-37 47 -31 97z" />
<glyph unicode="&#xcd;" horiz-adv-x="819" d="M78 0v35l178 49v1137l-178 49v35h661v-35l-176 -49v-1137l176 -49v-35h-661zM334 1432q53 242 119 354q29 49 77 65.5t91 -10t48 -78t-32 -98.5q-61 -82 -277 -252z" />
<glyph unicode="&#xce;" horiz-adv-x="819" d="M78 0v35l178 49v1137l-178 49v35h661v-35l-176 -49v-1137l176 -49v-35h-661zM113 1446l278 375h43l264 -375l-30 -27l-262 152l-263 -152z" />
<glyph unicode="&#xcf;" horiz-adv-x="819" d="M63 1608q0 63 45.5 111t110.5 48q63 0 102 -40.5t39 -104t-44.5 -112t-110.5 -48.5q-61 0 -101.5 42t-40.5 104zM78 0v35l178 49v1137l-178 49v35h661v-35l-176 -49v-1137l176 -49v-35h-661zM455 1608q0 63 46 111t111 48q61 0 101.5 -40.5t40.5 -104t-46 -112 t-112 -48.5q-61 0 -101 42t-40 104z" />
<glyph unicode="&#xd0;" horiz-adv-x="1511" d="M57 0v35l179 49v541h-175v92h175v504l-179 49v35h631q348 0 539.5 -182.5t191.5 -469.5q0 -285 -202.5 -469t-542.5 -184h-617zM543 74l149 8q188 10 288.5 144t100.5 427q0 545 -436 574l-102 6v-516h237v-92h-237v-551z" />
<glyph unicode="&#xd1;" horiz-adv-x="1525" d="M72 0v35l174 74v1093l-162 68v35h424l166 -209l524 -643h14v743l-174 74v35h437v-35l-175 -74v-1208h-114l-168 209l-670 807h-14v-895l174 -74v-35h-436zM455 1454q20 137 66 199.5t138 62.5q61 0 154.5 -41t136.5 -41q70 0 109 97l45 -13q-10 -141 -53 -204.5 t-138 -63.5q-63 0 -162.5 44t-142.5 44q-70 0 -108 -96z" />
<glyph unicode="&#xd2;" horiz-adv-x="1499" d="M92 653q0 289 178.5 485.5t485.5 196.5q319 0 485 -193.5t166 -488.5q0 -291 -178 -487.5t-486 -196.5q-317 0 -484 193.5t-167 490.5zM428 653.5q0 -331.5 87 -474t251 -142.5q143 0 224 157.5t81 458.5t-90 459t-248 158q-150 0 -227.5 -142.5t-77.5 -474zM524 1776.5 q6 50.5 49 78.5q41 27 91.5 10.5t76.5 -65.5q60 -108 117 -354l-27 -19q-215 170 -276 252q-37 47 -31 97.5z" />
<glyph unicode="&#xd3;" horiz-adv-x="1499" d="M92 653q0 289 178.5 485.5t485.5 196.5q319 0 485 -193.5t166 -488.5q0 -291 -178 -487.5t-486 -196.5q-317 0 -484 193.5t-167 490.5zM428 653.5q0 -331.5 87 -474t251 -142.5q143 0 224 157.5t81 458.5t-90 459t-248 158q-150 0 -227.5 -142.5t-77.5 -474zM680 1446 q53 242 119 354q29 49 77 65.5t91 -10t48 -78t-32 -98.5q-61 -82 -276 -252z" />
<glyph unicode="&#xd4;" horiz-adv-x="1499" d="M92 653q0 289 178.5 485.5t485.5 196.5q319 0 485 -193.5t166 -488.5q0 -291 -178 -487.5t-486 -196.5q-317 0 -484 193.5t-167 490.5zM428 653.5q0 -331.5 87 -474t251 -142.5q143 0 224 157.5t81 458.5t-90 459t-248 158q-150 0 -227.5 -142.5t-77.5 -474zM459 1460 l278 375h43l264 -375l-30 -26l-262 151l-263 -151z" />
<glyph unicode="&#xd5;" horiz-adv-x="1499" d="M92 653q0 289 178.5 485.5t485.5 196.5q319 0 485 -193.5t166 -488.5q0 -291 -178 -487.5t-486 -196.5q-317 0 -484 193.5t-167 490.5zM428 653.5q0 -331.5 87 -474t251 -142.5q143 0 224 157.5t81 458.5t-90 459t-248 158q-150 0 -227.5 -142.5t-77.5 -474zM446 1468 q20 137 66.5 200t138.5 63q61 0 154.5 -41t136.5 -41q70 0 109 96l45 -12q-10 -141 -53.5 -205t-137.5 -64q-63 0 -162.5 44t-142.5 44q-70 0 -108 -96z" />
<glyph unicode="&#xd6;" horiz-adv-x="1499" d="M92 653q0 289 178.5 485.5t485.5 196.5q319 0 485 -193.5t166 -488.5q0 -291 -178 -487.5t-486 -196.5q-317 0 -484 193.5t-167 490.5zM410 1622q0 63 45 111.5t110 48.5q63 0 102.5 -41t39.5 -104.5t-45 -111.5t-111 -48q-61 0 -101 42t-40 103zM428 653.5 q0 -331.5 87 -474t251 -142.5q143 0 224 157.5t81 458.5t-90 459t-248 158q-150 0 -227.5 -142.5t-77.5 -474zM801 1622q0 63 46 111.5t111 48.5q61 0 101.5 -41t40.5 -104.5t-46 -111.5t-112 -48q-61 0 -101 42t-40 103z" />
<glyph unicode="&#xd7;" horiz-adv-x="1034" d="M156 338l282 289l-282 288l84 80l276 -286l277 286l84 -80l-283 -288l283 -289l-84 -80l-277 287l-276 -287z" />
<glyph unicode="&#xd8;" horiz-adv-x="1499" d="M92 653q0 289 178.5 485.5t485.5 196.5q258 0 422 -135l141 162l57 -57l-139 -160q170 -185 170 -492q0 -291 -178 -487.5t-486 -196.5q-254 0 -421 135l-142 -161l-57 55l141 160q-172 186 -172 495zM428 653q0 -159 23 -282l569 651q-86 248 -287 248 q-150 0 -227.5 -142.5t-77.5 -474.5zM473 276q76 -240 293 -239q143 0 224 157.5t81 458.5q1 158 -24 275z" />
<glyph unicode="&#xd9;" horiz-adv-x="1462" d="M39 1270v35h661v-35l-178 -49v-795q0 -332 328 -332q156 0 242 92.5t86 262.5v753l-148 68v35h385v-35l-149 -68v-772q0 -219 -136.5 -340t-361.5 -121q-266 0 -409.5 124t-143.5 374v754zM538.5 1762q6.5 50 49.5 79q41 27 91 10.5t77 -65.5q59 -108 116 -354l-26 -19 q-215 170 -277 252q-37 47 -30.5 97z" />
<glyph unicode="&#xda;" horiz-adv-x="1462" d="M39 1270v35h661v-35l-178 -49v-795q0 -332 328 -332q156 0 242 92.5t86 262.5v753l-148 68v35h385v-35l-149 -68v-772q0 -219 -136.5 -340t-361.5 -121q-266 0 -409.5 124t-143.5 374v754zM694 1432q53 242 119 354q29 49 77 65.5t91 -10t48 -78t-32 -98.5 q-61 -82 -276 -252z" />
<glyph unicode="&#xdb;" horiz-adv-x="1462" d="M39 1270v35h661v-35l-178 -49v-795q0 -332 328 -332q156 0 242 92.5t86 262.5v753l-148 68v35h385v-35l-149 -68v-772q0 -219 -136.5 -340t-361.5 -121q-266 0 -409.5 124t-143.5 374v754zM473 1446l279 375h43l264 -375l-31 -27l-262 152l-262 -152z" />
<glyph unicode="&#xdc;" horiz-adv-x="1462" d="M39 1270v35h661v-35l-178 -49v-795q0 -332 328 -332q156 0 242 92.5t86 262.5v753l-148 68v35h385v-35l-149 -68v-772q0 -219 -136.5 -340t-361.5 -121q-266 0 -409.5 124t-143.5 374v754zM424 1608q0 63 45 111t111 48q63 0 102 -40.5t39 -104t-45 -112t-111 -48.5 q-61 0 -101 42t-40 104zM815 1608q0 63 46 111t112 48q61 0 101 -40.5t40 -104t-46 -112t-112 -48.5q-61 0 -101 42t-40 104z" />
<glyph unicode="&#xdd;" horiz-adv-x="1304" d="M-6 1270v35h647v-35l-152 -62l285 -510l248 498l-123 74v35h432v-35l-137 -68l-367 -581v-523l185 -63v-35h-674v35l182 63v457l-373 643zM625 1432q53 242 118 354q29 49 77 65.5t91 -10t48.5 -78t-31.5 -98.5q-61 -82 -277 -252z" />
<glyph unicode="&#xde;" horiz-adv-x="1292" d="M59 0v35l177 49v1137l-177 49v35h686v-35l-202 -49v-193q119 18 207 19q252 0 367.5 -107.5t115.5 -275.5q0 -162 -130 -278t-345 -116q-96 0 -215 19v-205l202 -49v-35h-686zM543 360l129 5q119 2 181 82t62 219q0 137 -62 213.5t-181 78.5l-129 5v-603z" />
<glyph unicode="&#xdf;" horiz-adv-x="1226" d="M8 811v35l185 92v41q0 145 54 240.5t163 181.5q150 117 333 117q158 0 260.5 -88.5t102.5 -208.5q0 -96 -63.5 -190.5t-217.5 -217.5v-14q193 -123 287 -246t94 -229q0 -150 -97 -252.5t-251 -102.5q-139 0 -209.5 56.5t-70.5 144.5q0 57 35.5 97t88.5 40q102 0 126 -89 t-40 -175q37 -4 66 -4q55 0 94 40t39 107q0 96 -90 202t-309 251v14q150 150 200 250.5t50 223t-64.5 203.5t-165.5 81q-154 0 -153 -237v-1111l84 -34v-29h-469v29l123 49v733h-185z" />
<glyph unicode="&#xe0;" d="M55 182q0 137 142.5 213t384.5 78v189q0 96 -48.5 147t-168.5 51q-51 0 -101 -8q86 -68 86 -160q0 -53 -37 -92t-92 -39q-61 0 -97 40t-36 95q0 119 150.5 192t314.5 73q139 0 215 -72t76 -209v-518q0 -61 30.5 -94t108.5 -41l4 -25q-152 -39 -227 -39q-158 0 -168 129 l-10 4q-125 -129 -279 -129q-115 0 -181.5 59.5t-66.5 155.5zM254 1381.5q6 50.5 49 78.5q41 27 91 10.5t77 -65.5q60 -108 117 -354l-27 -19q-215 170 -276 252q-37 47 -31 97.5zM330 238q0 -66 35.5 -105t93.5 -39q53 0 123 39v291q-137 -8 -194.5 -53t-57.5 -133z" />
<glyph unicode="&#xe1;" d="M55 182q0 137 142.5 213t384.5 78v189q0 96 -48.5 147t-168.5 51q-51 0 -101 -8q86 -68 86 -160q0 -53 -37 -92t-92 -39q-61 0 -97 40t-36 95q0 119 150.5 192t314.5 73q139 0 215 -72t76 -209v-518q0 -61 30.5 -94t108.5 -41l4 -25q-152 -39 -227 -39q-158 0 -168 129 l-10 4q-125 -129 -279 -129q-115 0 -181.5 59.5t-66.5 155.5zM330 238q0 -66 35.5 -105t93.5 -39q53 0 123 39v291q-137 -8 -194.5 -53t-57.5 -133zM410 1051q53 242 118 354q29 49 77 65.5t91 -10t48.5 -78t-31.5 -98.5q-61 -82 -277 -252z" />
<glyph unicode="&#xe2;" d="M55 182q0 137 142.5 213t384.5 78v189q0 96 -48.5 147t-168.5 51q-51 0 -101 -8q86 -68 86 -160q0 -53 -37 -92t-92 -39q-61 0 -97 40t-36 95q0 119 150.5 192t314.5 73q139 0 215 -72t76 -209v-518q0 -61 30.5 -94t108.5 -41l4 -25q-152 -39 -227 -39q-158 0 -168 129 l-10 4q-125 -129 -279 -129q-115 0 -181.5 59.5t-66.5 155.5zM188 1065l279 375h43l264 -375l-31 -27l-262 152l-262 -152zM330 238q0 -66 35.5 -105t93.5 -39q53 0 123 39v291q-137 -8 -194.5 -53t-57.5 -133z" />
<glyph unicode="&#xe3;" d="M55 182q0 137 142.5 213t384.5 78v189q0 96 -48.5 147t-168.5 51q-51 0 -101 -8q86 -68 86 -160q0 -53 -37 -92t-92 -39q-61 0 -97 40t-36 95q0 119 150.5 192t314.5 73q139 0 215 -72t76 -209v-518q0 -61 30.5 -94t108.5 -41l4 -25q-152 -39 -227 -39q-158 0 -168 129 l-10 4q-125 -129 -279 -129q-115 0 -181.5 59.5t-66.5 155.5zM176 1073q20 137 66.5 199.5t138.5 62.5q61 0 154.5 -41t136.5 -41q70 0 108 97l45 -13q-10 -141 -53 -204.5t-137 -63.5q-63 0 -162.5 44t-142.5 44q-70 0 -109 -96zM330 238q0 -66 35.5 -105t93.5 -39 q53 0 123 39v291q-137 -8 -194.5 -53t-57.5 -133z" />
<glyph unicode="&#xe4;" d="M55 182q0 137 142.5 213t384.5 78v189q0 96 -48.5 147t-168.5 51q-51 0 -101 -8q86 -68 86 -160q0 -53 -37 -92t-92 -39q-61 0 -97 40t-36 95q0 119 150.5 192t314.5 73q139 0 215 -72t76 -209v-518q0 -61 30.5 -94t108.5 -41l4 -25q-152 -39 -227 -39q-158 0 -168 129 l-10 4q-125 -129 -279 -129q-115 0 -181.5 59.5t-66.5 155.5zM139 1227q0 63 45 111t111 48q63 0 102 -40.5t39 -104t-44.5 -112t-110.5 -48.5q-61 0 -101.5 42t-40.5 104zM330 238q0 -66 35.5 -105t93.5 -39q53 0 123 39v291q-137 -8 -194.5 -53t-57.5 -133zM530 1227 q0 63 46.5 111t111.5 48q61 0 101 -40.5t40 -104t-45.5 -112t-111.5 -48.5q-61 0 -101.5 42t-40.5 104z" />
<glyph unicode="&#xe5;" d="M55 182q0 137 142.5 213t384.5 78v189q0 96 -48.5 147t-168.5 51q-51 0 -101 -8q86 -68 86 -160q0 -53 -37 -92t-92 -39q-61 0 -97 40t-36 95q0 119 150.5 192t314.5 73q139 0 215 -72t76 -209v-518q0 -61 30.5 -94t108.5 -41l4 -25q-152 -39 -227 -39q-158 0 -168 129 l-10 4q-125 -129 -279 -129q-115 0 -181.5 59.5t-66.5 155.5zM274 1223q0 78 58.5 137t156.5 59q96 0 149.5 -55t53.5 -139q0 -80 -57 -140.5t-156 -60.5q-96 0 -150.5 57.5t-54.5 141.5zM330 238q0 -66 35.5 -105t93.5 -39q53 0 123 39v291q-137 -8 -194.5 -53t-57.5 -133z M410 1221q0 -141 75 -142q41 0 56.5 36t15.5 110q0 141 -76 141q-72 0 -71 -145z" />
<glyph unicode="&#xe6;" horiz-adv-x="1517" d="M55 182q0 137 143.5 213t385.5 78v189q0 96 -49.5 147t-169.5 51q-49 0 -99 -8q84 -68 84 -160q0 -53 -35.5 -92t-91.5 -39q-59 0 -96 40t-37 95q0 119 149.5 192t315.5 73q158 0 219 -97q123 96 270 97q209 0 314.5 -123t101.5 -324h-626q2 -203 63 -304t227 -101 q111 0 314 53l12 -27q-96 -74 -208 -121t-208 -47q-248 0 -366 168l-11 4q-168 -172 -329 -172q-127 0 -200 59.5t-73 155.5zM330 238q0 -66 36.5 -105t92.5 -39q86 0 186 78q-57 104 -61 252q-133 -10 -193.5 -56t-60.5 -130zM834 575l368 21q-4 154 -45 226.5t-127 72.5 q-82 0 -134 -87t-62 -233z" />
<glyph unicode="&#xe7;" horiz-adv-x="978" d="M61 444q0 217 146.5 367t376.5 150q158 0 255 -65t97 -157q0 -63 -39 -108t-98 -45q-66 0 -107 43t-41 102q0 82 51 154q-20 4 -61 4q-135 0 -219 -95t-84 -290q0 -176 86 -285.5t213 -109.5q98 0 281 59l12 -25q-102 -96 -205 -137l-168 -145q164 -39 164 -193 q0 -88 -69.5 -149.5t-176.5 -61.5q-76 0 -127 37t-51 86q0 35 21.5 58.5t54.5 23.5q35 0 54 -22.5t19 -57.5t-28 -67q20 -6 49 -7q43 0 71.5 33t28.5 86q0 55 -32.5 88t-79.5 33q-41 0 -66 -8l-24 24l235 207q-45 -4 -68 -4q-201 0 -336 133t-135 344z" />
<glyph unicode="&#xe8;" horiz-adv-x="1021" d="M61 444q0 217 148.5 367t339.5 150q207 0 313.5 -123t102.5 -324h-627q2 -205 63.5 -305t225.5 -100q121 0 315 53l12 -27q-96 -74 -207.5 -121t-207.5 -47q-221 0 -349.5 131t-128.5 346zM313 1381.5q6 50.5 49 78.5q41 27 91.5 10.5t76.5 -65.5q60 -108 117 -354 l-26 -19q-215 170 -277 252q-37 47 -31 97.5zM340 573l367 23q-6 299 -172 299q-82 0 -134.5 -88.5t-60.5 -233.5z" />
<glyph unicode="&#xe9;" horiz-adv-x="1021" d="M61 444q0 217 148.5 367t339.5 150q207 0 313.5 -123t102.5 -324h-627q2 -205 63.5 -305t225.5 -100q121 0 315 53l12 -27q-96 -74 -207.5 -121t-207.5 -47q-221 0 -349.5 131t-128.5 346zM340 573l367 23q-6 299 -172 299q-82 0 -134.5 -88.5t-60.5 -233.5zM469 1051 q53 242 119 354q29 49 77 65.5t91 -10t48 -78t-32 -98.5q-61 -82 -276 -252z" />
<glyph unicode="&#xea;" horiz-adv-x="1021" d="M61 444q0 217 148.5 367t339.5 150q207 0 313.5 -123t102.5 -324h-627q2 -205 63.5 -305t225.5 -100q121 0 315 53l12 -27q-96 -74 -207.5 -121t-207.5 -47q-221 0 -349.5 131t-128.5 346zM248 1065l278 375h43l265 -375l-31 -27l-262 152l-262 -152zM340 573l367 23 q-6 299 -172 299q-82 0 -134.5 -88.5t-60.5 -233.5z" />
<glyph unicode="&#xeb;" horiz-adv-x="1021" d="M61 444q0 217 148.5 367t339.5 150q207 0 313.5 -123t102.5 -324h-627q2 -205 63.5 -305t225.5 -100q121 0 315 53l12 -27q-96 -74 -207.5 -121t-207.5 -47q-221 0 -349.5 131t-128.5 346zM199 1227q0 63 45 111t110 48q63 0 102.5 -40.5t39.5 -104t-45 -112t-111 -48.5 q-61 0 -101 42t-40 104zM340 573l367 23q-6 299 -172 299q-82 0 -134.5 -88.5t-60.5 -233.5zM590 1227q0 63 46 111t112 48q61 0 101 -40.5t40 -104t-46 -112t-112 -48.5q-61 0 -101 42t-40 104z" />
<glyph unicode="&#xec;" horiz-adv-x="571" d="M35 0v29l129 49v686l-121 96v21l375 86l8 -6v-883l123 -49v-29h-514zM43 1381.5q6 50.5 49 78.5q41 27 91 10.5t77 -65.5q60 -108 117 -354l-27 -19q-215 170 -276 252q-37 47 -31 97.5z" />
<glyph unicode="&#xed;" horiz-adv-x="571" d="M35 0v29l129 49v686l-121 96v21l375 86l8 -6v-883l123 -49v-29h-514zM199 1051q53 242 118 354q29 49 77 65.5t91 -10t48.5 -78t-31.5 -98.5q-61 -82 -277 -252z" />
<glyph unicode="&#xee;" horiz-adv-x="571" d="M-23 1065l279 375h43l264 -375l-31 -27l-262 152l-262 -152zM35 0v29l129 49v686l-121 96v21l375 86l8 -6v-883l123 -49v-29h-514z" />
<glyph unicode="&#xef;" horiz-adv-x="571" d="M-72 1227q0 63 45 111t111 48q63 0 102 -40.5t39 -104t-44.5 -112t-110.5 -48.5q-61 0 -101.5 42t-40.5 104zM35 0v29l129 49v686l-121 96v21l375 86l8 -6v-883l123 -49v-29h-514zM319 1227q0 63 46.5 111t111.5 48q61 0 101 -40.5t40 -104t-45.5 -112t-111.5 -48.5 q-61 0 -101.5 42t-40.5 104z" />
<glyph unicode="&#xf0;" horiz-adv-x="1093" d="M61 461q0 221 126 361.5t294 140.5q141 0 230 -82l6 4q-45 174 -137 299l-220 -92l-34 86l196 82q-113 131 -284 225l16 35q258 -68 428 -193l217 92l35 -84l-172 -73q287 -256 287 -670q0 -270 -143.5 -446.5t-379.5 -176.5q-213 0 -339 138.5t-126 353.5zM348 446 q0 -197 57.5 -302t163.5 -105q109 0 151 116.5t42 354.5q0 162 -27 301q-72 39 -151 39q-113 0 -174.5 -102.5t-61.5 -301.5z" />
<glyph unicode="&#xf1;" horiz-adv-x="1148" d="M41 0v29l123 49v686l-123 96v21l365 86l8 -6l-4 -166l8 -4q178 170 350 170q129 0 190.5 -81t61.5 -202v-600l123 -49v-29h-488v29l103 49v518q0 96 -32 147.5t-114 51.5q-92 0 -186 -39v-678l102 -49v-29h-487zM262 1073q20 137 66.5 199.5t138.5 62.5q61 0 154.5 -41 t136.5 -41q70 0 108 97l45 -13q-10 -141 -53 -204.5t-137 -63.5q-63 0 -162.5 44t-142.5 44q-70 0 -109 -96z" />
<glyph unicode="&#xf2;" horiz-adv-x="1105" d="M61 465q0 199 135.5 347.5t369 148.5t356 -142.5t122.5 -353.5q0 -199 -135 -348.5t-368.5 -149.5t-356.5 142.5t-123 355.5zM336 1381.5q6 50.5 49 78.5q41 27 91 10.5t77 -65.5q60 -108 117 -354l-27 -19q-215 170 -276 252q-37 47 -31 97.5zM342 465q0 -201 52 -315.5 t158.5 -114.5t159 114.5t52.5 315.5t-52.5 315.5t-159 114.5t-158.5 -114.5t-52 -315.5z" />
<glyph unicode="&#xf3;" horiz-adv-x="1105" d="M61 465q0 199 135.5 347.5t369 148.5t356 -142.5t122.5 -353.5q0 -199 -135 -348.5t-368.5 -149.5t-356.5 142.5t-123 355.5zM342 465q0 -201 52 -315.5t158.5 -114.5t159 114.5t52.5 315.5t-52.5 315.5t-159 114.5t-158.5 -114.5t-52 -315.5zM492 1051q53 242 118 354 q29 49 77 65.5t91 -10t48 -78t-31 -98.5q-61 -82 -277 -252z" />
<glyph unicode="&#xf4;" horiz-adv-x="1105" d="M61 465q0 199 135.5 347.5t369 148.5t356 -142.5t122.5 -353.5q0 -199 -135 -348.5t-368.5 -149.5t-356.5 142.5t-123 355.5zM270 1065l279 375h43l264 -375l-31 -27l-262 152l-262 -152zM342 465q0 -201 52 -315.5t158.5 -114.5t159 114.5t52.5 315.5t-52.5 315.5 t-159 114.5t-158.5 -114.5t-52 -315.5z" />
<glyph unicode="&#xf5;" horiz-adv-x="1105" d="M61 465q0 199 135.5 347.5t369 148.5t356 -142.5t122.5 -353.5q0 -199 -135 -348.5t-368.5 -149.5t-356.5 142.5t-123 355.5zM258 1073q20 137 66.5 199.5t138.5 62.5q61 0 154.5 -41t136.5 -41q70 0 108 97l45 -13q-10 -141 -53 -204.5t-137 -63.5q-63 0 -162.5 44 t-142.5 44q-70 0 -109 -96zM342 465q0 -201 52 -315.5t158.5 -114.5t159 114.5t52.5 315.5t-52.5 315.5t-159 114.5t-158.5 -114.5t-52 -315.5z" />
<glyph unicode="&#xf6;" horiz-adv-x="1105" d="M61 465q0 199 135.5 347.5t369 148.5t356 -142.5t122.5 -353.5q0 -199 -135 -348.5t-368.5 -149.5t-356.5 142.5t-123 355.5zM221 1227q0 63 45 111t111 48q63 0 102 -40.5t39 -104t-45 -112t-111 -48.5q-61 0 -101 42t-40 104zM342 465q0 -201 52 -315.5t158.5 -114.5 t159 114.5t52.5 315.5t-52.5 315.5t-159 114.5t-158.5 -114.5t-52 -315.5zM612 1227q0 63 46.5 111t111.5 48q61 0 101 -40.5t40 -104t-45.5 -112t-111.5 -48.5q-61 0 -101.5 42t-40.5 104z" />
<glyph unicode="&#xf7;" horiz-adv-x="1034" d="M84 569v117h866v-117h-866zM387 299q0 53 38 91t93 38q53 0 91 -38t38 -91q0 -55 -38 -92t-91 -37q-55 0 -93 37t-38 92zM387 956q0 53 38 91t93 38q53 0 91 -37.5t38 -91.5q0 -55 -38 -92t-91 -37q-55 0 -93 37t-38 92z" />
<glyph unicode="&#xf8;" horiz-adv-x="1105" d="M61 465q0 199 135.5 347.5t368.5 148.5q178 0 295 -89l105 119l59 -51q-49 -56 -104 -119q125 -137 124 -356q0 -199 -135 -348.5t-368 -149.5q-178 0 -295 88l-105 -118l-59 49l104 120q-125 137 -125 359zM342 465q0 -84 10 -170q6 6 16.5 18.5t42 48t61.5 70.5t69 79 t70.5 80t60 67.5t45.5 50.5l14 16q-49 170 -178 170q-106 0 -158.5 -114.5t-52.5 -315.5zM375 203q49 -168 178 -168q106 0 158.5 114.5t52.5 315.5q0 84 -10 166l-95 -107q-94 -106 -188 -213z" />
<glyph unicode="&#xf9;" horiz-adv-x="1142" d="M27 860v21l370 86l9 -6v-627q0 -96 31.5 -147.5t115.5 -51.5q88 0 184 37v608l-116 80v21l370 86l8 -6v-826l123 -59v-21l-364 -90l-8 4l4 164l-9 6q-180 -172 -348 -172q-131 0 -192.5 82t-61.5 203v528zM327.5 1381.5q6.5 50.5 49.5 78.5q41 27 91 10.5t77 -65.5 q60 -108 117 -354l-27 -19q-215 170 -277 252q-37 47 -30.5 97.5z" />
<glyph unicode="&#xfa;" horiz-adv-x="1142" d="M27 860v21l370 86l9 -6v-627q0 -96 31.5 -147.5t115.5 -51.5q88 0 184 37v608l-116 80v21l370 86l8 -6v-826l123 -59v-21l-364 -90l-8 4l4 164l-9 6q-180 -172 -348 -172q-131 0 -192.5 82t-61.5 203v528zM483 1051q53 242 119 354q29 49 77 65.5t91 -10t48 -78 t-32 -98.5q-61 -82 -276 -252z" />
<glyph unicode="&#xfb;" horiz-adv-x="1142" d="M27 860v21l370 86l9 -6v-627q0 -96 31.5 -147.5t115.5 -51.5q88 0 184 37v608l-116 80v21l370 86l8 -6v-826l123 -59v-21l-364 -90l-8 4l4 164l-9 6q-180 -172 -348 -172q-131 0 -192.5 82t-61.5 203v528zM262 1065l279 375h43l264 -375l-31 -27l-262 152l-262 -152z" />
<glyph unicode="&#xfc;" horiz-adv-x="1142" d="M27 860v21l370 86l9 -6v-627q0 -96 31.5 -147.5t115.5 -51.5q88 0 184 37v608l-116 80v21l370 86l8 -6v-826l123 -59v-21l-364 -90l-8 4l4 164l-9 6q-180 -172 -348 -172q-131 0 -192.5 82t-61.5 203v528zM213 1227q0 63 45 111t111 48q63 0 102 -40.5t39 -104t-45 -112 t-111 -48.5q-61 0 -101 42t-40 104zM604 1227q0 63 46 111t112 48q61 0 101 -40.5t40 -104t-46 -112t-112 -48.5q-61 0 -101 42t-40 104z" />
<glyph unicode="&#xfd;" horiz-adv-x="1011" d="M0 901v29h530v-29l-120 -53l202 -563h11l182 549l-109 67v29h355v-29l-127 -72l-316 -776q-104 -256 -191 -366.5t-190 -110.5q-86 0 -133 42t-47 103q0 51 42 92.5t95 41.5q94 0 176 -99q80 100 119 187l10 22l-366 883zM471 1051q53 242 119 354q29 49 77 65.5t91 -10 t48 -78t-32 -98.5q-61 -82 -276 -252z" />
<glyph unicode="&#xfe;" horiz-adv-x="1130" d="M-8 1386v21l389 111l8 -7v-680l8 -6q139 135 297 135.5t263.5 -128.5t105.5 -338q0 -217 -148.5 -372t-400.5 -155q-63 0 -125 13v-328l143 -49v-27h-528v27l123 49v1638zM389 145q70 -113 191 -112q88 0 145 96t57 299q0 377 -254 377q-61 0 -139 -19v-641z" />
<glyph unicode="&#xff;" horiz-adv-x="1011" d="M0 901v29h530v-29l-120 -53l202 -563h11l182 549l-109 67v29h355v-29l-127 -72l-316 -776q-104 -256 -191 -366.5t-190 -110.5q-86 0 -133 42t-47 103q0 51 42 92.5t95 41.5q94 0 176 -99q80 100 119 187l10 22l-366 883zM201 1227q0 63 45 111t110 48q63 0 102.5 -40.5 t39.5 -104t-45 -112t-111 -48.5q-61 0 -101 42t-40 104zM592 1227q0 63 46 111t112 48q61 0 101 -40.5t40 -104t-46 -112t-112 -48.5q-61 0 -101 42t-40 104z" />
<glyph unicode="&#x152;" horiz-adv-x="2068" d="M92 653q0 283 203 467.5t543 184.5h1063l28 -441l-37 -10l-161 225q-57 82 -110.5 113t-156.5 35l-188 8v-543h70q86 0 131 36t79 132l25 68h43v-551h-43l-25 63q-37 96 -80.5 132t-129.5 36h-70v-536l252 12q84 4 140 36t110 99l166 213l38 -8l-38 -424h-1121 q-348 0 -539.5 182.5t-191.5 470.5zM430 653q0 -559 436 -575l103 -4v1159l-150 -8q-188 -10 -288.5 -144.5t-100.5 -427.5z" />
<glyph unicode="&#x153;" horiz-adv-x="1728" d="M61 465q0 199 135.5 347.5t368.5 148.5q240 0 357 -158q137 158 333 158q207 0 313.5 -123t102.5 -324h-627q2 -203 63.5 -304t225.5 -101q113 0 316 53l12 -27q-96 -74 -208 -121t-208 -47q-229 0 -350 148q-131 -147 -354 -148q-233 0 -356.5 142.5t-123.5 355.5z M342 465q0 -201 52 -315.5t158.5 -114.5t159 114.5t52.5 315.5t-52.5 315.5t-159 114.5t-158.5 -114.5t-52 -315.5zM1044 575l369 21q-6 299 -172 299q-82 0 -134.5 -87.5t-62.5 -232.5z" />
<glyph unicode="&#x178;" horiz-adv-x="1304" d="M-6 1270v35h647v-35l-152 -62l285 -510l248 498l-123 74v35h432v-35l-137 -68l-367 -581v-523l185 -63v-35h-674v35l182 63v457l-373 643zM354 1608q0 63 45 111t111 48q63 0 102 -40.5t39 -104t-44.5 -112t-110.5 -48.5q-61 0 -101.5 42t-40.5 104zM745 1608 q0 63 46.5 111t111.5 48q61 0 101 -40.5t40 -104t-45.5 -112t-111.5 -48.5q-61 0 -101.5 42t-40.5 104z" />
<glyph unicode="&#x2c6;" horiz-adv-x="653" d="M33 1065l278 375h43l264 -375l-30 -27l-262 152l-263 -152z" />
<glyph unicode="&#x2dc;" horiz-adv-x="718" d="M39 1073q20 137 66.5 199.5t138.5 62.5q61 0 154.5 -41t136.5 -41q70 0 108 97l45 -13q-10 -141 -53 -204.5t-137 -63.5q-63 0 -162.5 44t-142.5 44q-70 0 -109 -96z" />
<glyph unicode="&#x2000;" horiz-adv-x="935" />
<glyph unicode="&#x2001;" horiz-adv-x="1871" />
<glyph unicode="&#x2002;" horiz-adv-x="935" />
<glyph unicode="&#x2003;" horiz-adv-x="1871" />
<glyph unicode="&#x2004;" horiz-adv-x="623" />
<glyph unicode="&#x2005;" horiz-adv-x="467" />
<glyph unicode="&#x2006;" horiz-adv-x="311" />
<glyph unicode="&#x2007;" horiz-adv-x="311" />
<glyph unicode="&#x2008;" horiz-adv-x="233" />
<glyph unicode="&#x2009;" horiz-adv-x="374" />
<glyph unicode="&#x200a;" horiz-adv-x="103" />
<glyph unicode="&#x2010;" horiz-adv-x="665" d="M78 410v165h510v-165h-510z" />
<glyph unicode="&#x2011;" horiz-adv-x="665" d="M78 410v165h510v-165h-510z" />
<glyph unicode="&#x2012;" horiz-adv-x="665" d="M78 410v165h510v-165h-510z" />
<glyph unicode="&#x2013;" horiz-adv-x="1091" d="M78 471v92h936v-92h-936z" />
<glyph unicode="&#x2014;" horiz-adv-x="1603" d="M78 471v92h1448v-92h-1448z" />
<glyph unicode="&#x2018;" horiz-adv-x="446" d="M63 999q0 225 289 351l23 -29q-162 -139 -199 -262l4 -4l35 10q23 6 43 6q51 0 84 -35t33 -88q0 -61 -42 -104t-104 -43q-76 0 -121 55t-45 143z" />
<glyph unicode="&#x2019;" horiz-adv-x="448" d="M72 815q162 139 198 262l-4 4l-30 -8q-33 -8 -48 -8q-51 0 -83.5 35t-32.5 88q0 61 42 104t103 43q76 0 121 -55t45 -143q0 -225 -289 -351z" />
<glyph unicode="&#x201a;" horiz-adv-x="475" d="M72 109q0 61 42 104t103 43q76 0 121 -55.5t45 -143.5q0 -225 -289 -350l-22 29q162 139 198 262l-4 4l-30 -8q-33 -8 -48 -8q-51 0 -83.5 34.5t-32.5 88.5z" />
<glyph unicode="&#x201c;" horiz-adv-x="786" d="M61 1016q0 215 277 334l20 -27q-158 -137 -188 -252l2 -4l35 10q23 6 41 6q47 0 78.5 -33.5t31.5 -82.5q0 -57 -39.5 -99.5t-99.5 -42.5q-72 0 -115 52.5t-43 138.5zM418 1016q0 215 276 334l21 -27q-158 -137 -189 -252l2 -4l35 10q23 6 41 6q47 0 79 -33.5t32 -82.5 q0 -57 -40 -99.5t-100 -42.5q-72 0 -114.5 52.5t-42.5 138.5z" />
<glyph unicode="&#x201d;" horiz-adv-x="788" d="M72 838q158 137 188 252l-2 4l-29 -9q-29 -8 -47 -8q-47 0 -78.5 34t-31.5 83q0 57 40 99t99 42q72 0 115 -52t43 -138q0 -215 -277 -334zM428 838q158 137 188 252l-2 4l-28 -9q-29 -8 -47 -8q-47 0 -79 34t-32 83q0 57 40 99t99 42q72 0 115 -52t43 -138 q0 -215 -276 -334z" />
<glyph unicode="&#x201e;" horiz-adv-x="788" d="M72 115q0 57 40 99t99 42q72 0 115 -52t43 -138q0 -215 -277 -334l-20 26q158 137 188 252l-2 4l-29 -8q-29 -8 -47 -8q-47 0 -78.5 34t-31.5 83zM428 115q0 57 40 99t99 42q72 0 115 -52t43 -138q0 -215 -276 -334l-21 26q158 137 188 252l-2 4l-28 -8q-29 -8 -47 -8 q-47 0 -79 34t-32 83z" />
<glyph unicode="&#x2022;" horiz-adv-x="962" d="M147 653.5q0 137.5 97.5 233.5t234.5 96t233.5 -96t96.5 -233.5t-96.5 -234.5t-233.5 -97q-139 0 -235.5 97t-96.5 234.5z" />
<glyph unicode="&#x2026;" horiz-adv-x="1318" d="M70 112.5q0 59.5 43 101.5t102 42t101 -42t42 -101.5t-42 -102.5t-101 -43t-102 43t-43 102.5zM516 112.5q0 59.5 43 101.5t102.5 42t101.5 -42t42 -101.5t-42 -102.5t-101.5 -43t-102.5 43t-43 102.5zM963 112.5q0 59.5 43 101.5t102 42t101 -42t42 -101.5t-42 -102.5 t-101 -43t-102 43t-43 102.5z" />
<glyph unicode="&#x202f;" horiz-adv-x="374" />
<glyph unicode="&#x2039;" horiz-adv-x="626" d="M61 449v20l404 387l47 -43l-231 -354l231 -357l-47 -41z" />
<glyph unicode="&#x203a;" horiz-adv-x="626" d="M115 102l231 357l-231 354l47 43l403 -387v-20l-403 -388z" />
<glyph unicode="&#x205f;" horiz-adv-x="467" />
<glyph unicode="&#x20ac;" horiz-adv-x="1241" d="M45 449v92h152v45q0 31 4 92h-156v92h168q47 238 208 377t388 139q170 0 262 -67.5t92 -163.5q0 -72 -38 -114t-107 -42q-109 0 -141.5 105.5t30.5 177.5q-45 29 -106 28q-106 0 -198.5 -106.5t-113.5 -333.5h482v-92h-486v-27q0 -57 7 -110h479v-92h-461 q39 -141 131 -218t225 -77q176 0 293 51l10 -27q-70 -94 -177 -151.5t-234 -57.5q-209 0 -361.5 125t-189.5 355h-162z" />
<glyph unicode="&#x2122;" horiz-adv-x="1116" d="M49 1159l17 146h368l12 -146l-16 -4l-57 82q-25 35 -58 41l-12 2v-317l51 -19v-22h-211v22l54 19v317l-13 -2q-35 -6 -59 -41l-59 -82zM508 922v22l53 25v293l-53 18v25h194l19 -64l65 -176h5l63 176l20 64h187v-25l-51 -18v-299l51 -19v-22h-199v22l41 19v292h-8 l-125 -333h-33l-133 333h-8v-286l55 -25v-22h-143z" />
<glyph unicode="&#xe000;" horiz-adv-x="931" d="M0 0v932h932v-932h-932z" />
<glyph unicode="&#xfb01;" horiz-adv-x="1245" d="M8 811v35l185 92v37q0 270 174 428q125 115 333 115q172 0 254 -63.5t82 -147.5q0 -63 -39 -103.5t-102 -40.5q-82 0 -129 76t-39 209q-272 -39 -272 -418v-98h487l150 35l8 -6v-883l123 -49v-29h-508v29l123 49v733h-383v-733l127 -49v-29h-512v29l123 49v733h-185z" />
<glyph unicode="&#xfb02;" horiz-adv-x="1251" d="M8 811v35l185 92v37q0 270 174 428q125 115 333 115q135 0 226 -45l166 47l8 -7v-1435l123 -49v-29h-514v29l129 49v733h-383v-733l127 -49v-29h-512v29l123 49v733h-185zM455 932h383v244q-125 53 -111 272q-272 -39 -272 -418v-98z" />
</font>
</defs>
</svg>
