<?xml version="1.0" standalone="no"?>
<!DOCTYPE svg PUBLIC "-//W3C//DTD SVG 1.1//EN" "http://www.w3.org/Graphics/SVG/1.1/DTD/svg11.dtd" >
<svg xmlns="http://www.w3.org/2000/svg">
<metadata></metadata>
<defs>
<font id="mercury_displayroman" horiz-adv-x="1445" >
<font-face units-per-em="2048" ascent="1638" descent="-410" />
<missing-glyph horiz-adv-x="471" />
<glyph horiz-adv-x="2048" />
<glyph horiz-adv-x="2048" />
<glyph unicode="&#xd;" horiz-adv-x="681" />
<glyph unicode=" "  horiz-adv-x="471" />
<glyph unicode="&#x09;" horiz-adv-x="471" />
<glyph unicode="&#xa0;" horiz-adv-x="471" />
<glyph unicode="!" horiz-adv-x="548" d="M152 92q0 51 35.5 87t87 36t87 -36t35.5 -87t-35.5 -87t-87 -36t-87 36t-35.5 87zM162 1206q0 61 31.5 95t83 34t83 -34t31.5 -95q0 -98 -92 -848h-45q-92 750 -92 848z" />
<glyph unicode="&#x22;" horiz-adv-x="641" d="M98 907l33 150q37 180 51 221q25 57 70 57q27 0 50.5 -18t23.5 -49q0 -25 -9 -43q-18 -41 -114 -197l-80 -131zM360 907l31 150q39 182 53 221q25 57 70 57q27 0 50.5 -18t23.5 -49q0 -25 -8 -43q-12 -29 -115 -197l-80 -131z" />
<glyph unicode="#" horiz-adv-x="1189" d="M92 408v67h252l47 158l35 129h-270v67h288l93 330l69 -20l-92 -310h281l92 330l69 -20l-92 -310h234v-67h-254l-43 -146l-39 -141h272v-67h-291l-84 -314l-71 21l86 293h-281l-84 -314l-71 21l86 293h-232zM412 475h282l47 158l35 129h-282l-43 -146z" />
<glyph unicode="$" horiz-adv-x="1120" d="M121 393l35 4q55 -147 140 -238t181 -120q2 0 37 442l6 64q-57 23 -75.5 31t-69.5 31.5t-70.5 39t-55.5 45t-50.5 57t-26.5 67.5t-12 85q0 162 112.5 270.5t296.5 114.5l11 146l75 -11l-12 -137q174 -10 272 -49l9 -309l-35 -6q-111 231 -252 286l-37 -454 q188 -80 254 -129q123 -96 123 -248q0 -180 -119 -289t-313 -117l-10 -172l-76 8l14 164q-180 6 -332 74zM334 1016q0 -84 53 -137.5t150 -98.5l28 445q-100 10 -165.5 -44.5t-65.5 -164.5zM549 27q119 -2 185.5 65.5t66.5 190.5q0 88 -56.5 140t-162.5 97z" />
<glyph unicode="%" horiz-adv-x="1527" d="M70 938q0 143 94 244.5t256 101.5q158 0 243 -95t85 -247q0 -143 -94.5 -245.5t-254.5 -102.5q-158 0 -243.5 96t-85.5 248zM227 936q0 -147 51.5 -225t133.5 -78q176 0 176 309q0 147 -49.5 225t-132.5 78q-80 0 -129.5 -80t-49.5 -229zM258 -25l481 668l471 674l60 -43 l-482 -666l-471 -674zM782 311q0 143 94.5 244.5t253.5 101.5q158 0 243 -95t85 -247q0 -143 -94 -245.5t-254 -102.5q-158 0 -243 96.5t-85 247.5zM940 309q0 -147 51 -225t133 -78q84 0 130 79t46 230q0 147 -49 225t-135 78q-80 0 -128 -79.5t-48 -229.5z" />
<glyph unicode="&#x26;" horiz-adv-x="1423" d="M68 315q0 121 73.5 217.5t192.5 155.5l74 37q-119 141 -119 274q0 129 101.5 208t236.5 79q139 0 219 -75.5t80 -174.5q0 -143 -219 -282l-62 -39l313 -416l177 317l-109 60v20h373v-26l-137 -52l-273 -362q82 -98 138.5 -132t127.5 -34q37 0 107 4l8 -22 q-141 -102 -266 -103q-127 0 -254 168q-104 -88 -188 -128t-189 -40q-178 0 -291.5 98.5t-113.5 247.5zM264 365q0 -117 84 -186.5t217 -69.5q123 0 256 63l-387 522l-37 -37q-133 -133 -133 -292zM461 1059q0 -88 94 -219l66 -90q137 145 137 297q0 82 -43 136t-111 54 q-66 0 -104.5 -47t-38.5 -131z" />
<glyph unicode="'" horiz-adv-x="378" d="M98 907l33 150q37 180 51 221q25 57 70 57q27 0 50.5 -18t23.5 -49q0 -25 -9 -43q-18 -41 -114 -197l-80 -131z" />
<glyph unicode="(" horiz-adv-x="698" d="M121 578q0 340 187.5 597t443.5 343l12 -33q-223 -100 -357.5 -344t-134.5 -563q0 -317 135.5 -562t356.5 -344l-12 -32q-256 84 -443.5 341t-187.5 597z" />
<glyph unicode=")" horiz-adv-x="698" d="M-66 -328q221 98 356.5 343t135.5 563q0 319 -134 562.5t-358 344.5l13 33q256 -86 443.5 -343t187.5 -597t-187.5 -597t-443.5 -341z" />
<glyph unicode="*" horiz-adv-x="706" d="M72 868q12 57 65 88q61 35 162 56v10q-109 25 -162 55q-51 29 -65 88l12 23q57 18 109 -14q59 -35 129 -111l8 4q-33 113 -33 168q0 59 45 100h25q43 -39 43 -100q0 -63 -33 -168l8 -4q74 80 129 111q53 31 109 14l12 -23q-14 -59 -66 -88q-53 -31 -159 -55v-10 q98 -20 159 -56q54 -31 66 -88l-10 -20q-59 -16 -111 12q-49 27 -129 111l-8 -4q33 -100 33 -166q0 -59 -43 -103h-25q-45 41 -45 103q0 66 33 166l-8 4q-74 -80 -129 -111q-51 -31 -109 -12z" />
<glyph unicode="+" horiz-adv-x="1034" d="M84 582v92h387v383h94v-383h385v-92h-385v-389h-94v389h-387z" />
<glyph unicode="," horiz-adv-x="475" d="M113 -229q141 119 170 223l-4 2l-25 -6q-20 -6 -41 -6q-43 0 -70.5 29.5t-27.5 74.5q0 51 35.5 88t87.5 37q66 0 103.5 -47t37.5 -123q0 -80 -62.5 -159t-183.5 -138z" />
<glyph unicode="-" horiz-adv-x="688" d="M102 422v117h484v-117h-484z" />
<glyph unicode="." horiz-adv-x="432" d="M92 90q0 51 37 87t88 36t87 -36t36 -87t-36 -87t-87 -36t-88 36t-37 87z" />
<glyph unicode="/" horiz-adv-x="788" d="M-20 -399l421 954l410 963l68 -29l-422 -957l-410 -962z" />
<glyph unicode="0" horiz-adv-x="1150" d="M82 627q0 285 136 472t364 187q236 0 360.5 -184t124.5 -475q0 -283 -136 -470.5t-364 -187.5q-236 0 -360.5 183.5t-124.5 474.5zM295 626.5q0 -610.5 297 -610.5q113 0 187.5 155t74.5 456q0 303 -85 456.5t-212 153.5q-262 0 -262 -610.5z" />
<glyph unicode="1" horiz-adv-x="786" d="M86 1180v24l403 68l11 -6v-1166l227 -67v-33h-639v33l227 67v996z" />
<glyph unicode="2" horiz-adv-x="1050" d="M41 25q274 203 442 403q191 233 191 438q0 117 -61.5 188.5t-168.5 71.5q-156 0 -303 -147l-16 22q59 131 172 208t227 77q166 0 261.5 -102.5t95.5 -263.5q0 -147 -144.5 -341t-435.5 -411l4 -6h443l178 184l20 -6l-82 -340h-811z" />
<glyph unicode="3" horiz-adv-x="989" d="M82 164q0 51 31.5 84t81.5 33q68 0 104.5 -58.5t17.5 -148.5q66 -53 154 -54q102 0 166.5 72t64.5 184q0 289 -417 320v25q211 74 289.5 154.5t78.5 180.5q0 80 -59 129.5t-160 49.5q-123 0 -291 -107l-20 23q182 236 397 235q150 0 229.5 -78t79.5 -182 q0 -98 -69.5 -179t-188.5 -134v-15q154 -33 232 -126t78 -210q0 -162 -129 -277.5t-312 -115.5q-160 0 -259 55.5t-99 139.5z" />
<glyph unicode="4" horiz-adv-x="1118" d="M70 430l688 854l26 -12v-748h252v-131h-252v-293l213 -67v-33h-612v33l217 67v293h-516zM225 524h377v463h-4z" />
<glyph unicode="5" horiz-adv-x="1009" d="M94 164q0 51 32 84t81 33q68 0 104.5 -58.5t18.5 -148.5q66 -53 157 -54q98 0 167 77t69 216q0 135 -95.5 222.5t-252.5 87.5q-96 0 -199 -31l-10 8l74 653h528l84 86l22 -6l-43 -252h-546l-39 -301l8 -6q104 16 180 17q221 0 345 -104t124 -286q0 -180 -134 -306 t-320 -126q-156 0 -255.5 55.5t-99.5 139.5z" />
<glyph unicode="6" horiz-adv-x="1058" d="M92 446q0 342 248 578q227 215 532 285l11 -35q-215 -94 -342 -221q-131 -131 -207 -324l10 -2q119 90 258 90q170 0 270.5 -112.5t100.5 -264.5q0 -201 -121 -336t-317 -135q-184 0 -313.5 124t-129.5 353zM285 446q0 -170 77.5 -300t196.5 -130q109 0 169 92t60 244 q0 162 -73.5 260.5t-218.5 98.5q-90 0 -177 -37q-35 -100 -34 -228z" />
<glyph unicode="7" horiz-adv-x="966" d="M104 967l56 329l18 7l47 -50h717l8 -14l-624 -1270h-156l295 500l334 612h-570l-104 -120z" />
<glyph unicode="8" horiz-adv-x="1015" d="M113 262q0 109 76.5 197t197.5 135q-123 78 -183.5 159t-60.5 191q0 145 117 243.5t268 98.5q172 0 268.5 -86t96.5 -209q0 -197 -264 -315q150 -86 217 -166t67 -176q0 -166 -115.5 -265.5t-299.5 -99.5q-176 0 -280.5 84t-104.5 209zM289 287q0 -115 68.5 -193 t181.5 -78q84 0 139 63t55 163q0 180 -313 331q-131 -117 -131 -286zM319 1028q0 -104 60.5 -175t210.5 -155q129 143 129 310q0 96 -52.5 162.5t-144.5 66.5q-88 0 -145.5 -57.5t-57.5 -151.5z" />
<glyph unicode="9" horiz-adv-x="1056" d="M86 829q0 193 121 325t317.5 132t318.5 -129t122 -350q0 -344 -246 -578q-119 -113 -246 -180t-305 -102l-10 33q225 86 360 221q127 127 213 344l-10 2q-106 -90 -242 -90q-168 0 -280.5 103.5t-112.5 268.5zM274 903q0 -158 77 -249t224 -91q80 0 168 37q29 92 29 209 q0 176 -74.5 302t-187.5 126q-109 0 -172.5 -92t-63.5 -242z" />
<glyph unicode=":" horiz-adv-x="432" d="M92 90q0 51 36 87t87 36t87 -36t36 -87t-36 -87t-87 -36t-87 36t-36 87zM92 698.5q0 51.5 36 87t87 35.5t87 -35.5t36 -87t-36 -87.5t-87 -36t-87 36t-36 87.5z" />
<glyph unicode=";" horiz-adv-x="475" d="M111 -229q141 119 170 223l-5 2l-24 -6q-23 -6 -41 -6q-43 0 -70.5 29.5t-27.5 74.5q0 51 35.5 88t87.5 37q66 0 103.5 -47t37.5 -123q0 -80 -62.5 -159t-183.5 -138zM131 698.5q0 51.5 36 87t87 35.5t87 -35.5t36 -87t-36 -87.5t-87 -36t-87 36t-36 87.5z" />
<glyph unicode="&#x3c;" horiz-adv-x="1034" d="M143 600v55l717 371l21 -90l-611 -309l611 -308l-21 -90z" />
<glyph unicode="=" horiz-adv-x="1034" d="M84 406v90h866v-90h-866zM84 758v90h866v-90h-866z" />
<glyph unicode="&#x3e;" horiz-adv-x="1034" d="M154 319l610 310l-610 307l20 90l717 -371v-55l-717 -371z" />
<glyph unicode="?" horiz-adv-x="804" d="M76 1143q0 84 87 138t220 54q162 0 267.5 -98.5t105.5 -235.5q0 -98 -58.5 -168.5t-187.5 -134.5q-109 -53 -146.5 -88t-37.5 -86q0 -47 34.5 -76.5t90.5 -29.5q45 0 112 14l10 -22q-55 -55 -163 -56q-98 0 -169 54.5t-71 142.5q0 84 51 144.5t170 127.5 q106 59 155.5 116.5t49.5 141.5q0 88 -54.5 146.5t-146.5 58.5q-76 0 -119 -45q29 -49 29 -102q0 -51 -31.5 -85t-81 -34t-83 35t-33.5 88zM242 92q0 51 35.5 87t87 36t87 -36t35.5 -87t-35.5 -87t-87 -36t-87 36t-35.5 87z" />
<glyph unicode="@" horiz-adv-x="1679" d="M76 438q0 328 247.5 569.5t602.5 241.5q301 0 489.5 -189.5t188.5 -441.5q0 -233 -144.5 -402t-333.5 -169q-86 0 -136 41t-50 100l-6 5q-106 -129 -232 -130q-86 0 -147 75t-61 208q0 197 147 361.5t348 164.5q63 0 127 -34l70 59l10 -6l-117 -631q-29 -156 82 -156 q145 0 231.5 130.5t86.5 349.5q0 236 -169 413t-449.5 177t-461 -205t-180.5 -545q0 -285 186.5 -469t507.5 -184q248 0 465 106l13 -16q-219 -188 -537 -189q-326 0 -552 204t-226 562zM637 383q0 -100 42 -160.5t118 -60.5q70 0 151 74l82 477q-74 84 -160 84 q-88 0 -160.5 -122t-72.5 -292z" />
<glyph unicode="A" horiz-adv-x="1288" d="M-33 0v35l146 55l471 1227h96l473 -1235l166 -47v-35h-584v35l203 37l-152 407h-448l-148 -395l148 -49v-35h-371zM362 547h398l-197 528h-4z" />
<glyph unicode="B" horiz-adv-x="1282" d="M72 0v35l204 37v1161l-204 37v35h606q207 0 319.5 -82t112.5 -211q0 -109 -73.5 -192t-221.5 -113v-11q186 -20 283.5 -110t97.5 -211q0 -158 -126 -266.5t-339 -108.5h-659zM481 68q68 -14 168 -15q314 0 314 305q0 137 -79 215t-243 78h-160v-583zM481 709h168 q117 0 182.5 72.5t65.5 205.5q0 135 -76 199.5t-186 64.5q-94 0 -154 -12v-530z" />
<glyph unicode="C" horiz-adv-x="1341" d="M82 639q0 289 200.5 492.5t501.5 203.5q180 0 301 -63l89 69h22l16 -438l-32 -4q-102 205 -213 291t-267 86q-152 0 -266.5 -152.5t-114.5 -449.5q0 -301 146.5 -468t368.5 -167q94 0 159 29l232 288l18 -8l-39 -270q-106 -57 -199.5 -83t-224.5 -26q-311 0 -504.5 184.5 t-193.5 485.5z" />
<glyph unicode="D" horiz-adv-x="1497" d="M74 0v35l202 37v1161l-202 37v35h628q328 0 520.5 -184.5t192.5 -467.5q0 -281 -203.5 -467t-521.5 -186h-616zM481 68h226q219 0 346 140t127 445q0 301 -141.5 442.5t-376.5 141.5h-181v-1169z" />
<glyph unicode="E" horiz-adv-x="1312" d="M74 0v35l202 37v1161l-202 37v35h1026l49 -351l-19 -14l-157 174q-6 6 -22.5 24.5t-21.5 23.5l-19.5 19.5t-20.5 17.5t-20.5 12.5t-24.5 11.5t-26.5 7t-34 6t-38.5 1h-264v-551h109q90 0 134 42t73 151l18 67h31v-575h-31l-18 63q-29 109 -73 152t-134 43h-109v-559h359 q84 0 119.5 22.5t84.5 85.5l179 230l20 -9l-55 -399h-1114z" />
<glyph unicode="F" horiz-adv-x="1198" d="M74 0v35l202 37v1161l-202 37v35h1028l49 -351l-21 -14l-157 174q-4 6 -19.5 22.5t-19.5 21.5t-17.5 17.5t-18.5 16.5t-17.5 13t-20.5 12.5t-21.5 8.5t-26.5 6t-30.5 3t-36.5 2h-262v-559h121q90 0 134 43t73 151l18 68h31v-575h-31l-18 63q-29 109 -73 151t-134 42h-121 v-549l215 -37v-35h-624z" />
<glyph unicode="G" horiz-adv-x="1404" d="M82 639q0 289 200.5 492.5t499.5 203.5q174 0 295 -63l90 69h23l14 -438l-33 -4q-100 199 -210.5 288t-247.5 89q-164 0 -280 -151.5t-116 -450.5q0 -303 132.5 -463t351.5 -160q115 0 233 60v376l-176 37v35h531v-35l-150 -37v-503l-20 -9l-152 99q-158 -104 -346 -105 q-281 0 -460 187.5t-179 482.5z" />
<glyph unicode="H" horiz-adv-x="1667" d="M74 0v35l202 37v1161l-202 37v35h610v-35l-203 -37v-522h705v522l-203 37v35h610v-35l-202 -37v-1161l202 -37v-35h-610v35l203 37v571h-705v-571l203 -37v-35h-610z" />
<glyph unicode="I" horiz-adv-x="819" d="M96 0v35l211 37v1161l-211 37v35h625v-35l-209 -37v-1161l209 -37v-35h-625z" />
<glyph unicode="J" horiz-adv-x="1019" d="M47 141q0 53 39 88t90 35q68 0 110 -67.5t42 -184.5q147 31 190 112t43 247v862l-209 37v35h619v-35l-203 -37v-782q0 -133 -22.5 -214t-83.5 -147q-121 -127 -334 -127q-145 0 -213 52.5t-68 125.5z" />
<glyph unicode="K" horiz-adv-x="1413" d="M74 0v35l202 37v1161l-202 37v35h612v-35l-205 -37v-528h140l452 501l-153 64v35h444v-35l-184 -74l-435 -453l515 -649l172 -59v-35h-555v35l139 49l-416 553h-119v-565l205 -37v-35h-612z" />
<glyph unicode="L" horiz-adv-x="1249" d="M74 0v35l202 37v1161l-202 37v35h612v-35l-203 -37v-1163h308q84 0 119.5 22.5t84.5 85.5l179 230l18 -9l-53 -399h-1065z" />
<glyph unicode="M" horiz-adv-x="1871" d="M104 0v35l162 55v1139l-162 41v35h431l79 -211l328 -809h10l320 809l76 211h450v-35l-203 -37v-1161l203 -37v-35h-610v35l203 37v1128h-15l-479 -1200h-49l-500 1200h-14v-1110l162 -55v-35h-392z" />
<glyph unicode="N" horiz-adv-x="1525" d="M104 0v35l162 55v1127l-162 53v35h385l154 -209l545 -719h12v837l-162 56v35h394v-35l-162 -56v-1226h-58l-153 209l-711 933h-14v-1040l162 -55v-35h-392z" />
<glyph unicode="O" d="M82 653q0 285 179 483.5t466 198.5q297 0 465 -195.5t168 -486.5q0 -287 -179.5 -485.5t-465.5 -198.5q-297 0 -465 196.5t-168 487.5zM317 653q0 -172 37 -300t100.5 -198.5t135.5 -104.5t153 -34q154 0 267.5 167t113.5 470q0 299 -129 467t-297 168 q-162 0 -271.5 -151.5t-109.5 -483.5z" />
<glyph unicode="P" horiz-adv-x="1212" d="M74 0v35l202 37v1161l-202 37v35h592q225 0 347 -100.5t122 -258.5q0 -152 -115 -265.5t-324 -113.5q-96 0 -215 19v-514l203 -37v-35h-610zM481 635q61 -10 137 -10q287 0 287 315q0 147 -73.5 229t-208.5 82q-80 0 -142 -12v-604z" />
<glyph unicode="Q" d="M82 653q0 285 179 483.5t466 198.5q297 0 465 -195.5t168 -486.5q0 -256 -146.5 -446.5t-388.5 -229.5q127 -203 238 -276q102 -72 244 -98l-4 -31h-158q-221 0 -311 66q-53 41 -144 192l-86 147q-248 37 -385 225.5t-137 450.5zM317 653q0 -172 37 -300t100.5 -198.5 t135.5 -104.5t153 -34q154 0 267.5 167t113.5 470q0 299 -129 467t-297 168q-162 0 -271.5 -151.5t-109.5 -483.5z" />
<glyph unicode="R" horiz-adv-x="1347" d="M74 0v35l202 37v1161l-202 37v35h594q231 0 362 -91t131 -243q0 -117 -97 -204t-271 -122v-10q145 -47 231 -221q8 -18 27.5 -54t27.5 -53.5t24.5 -47.5t27 -46t23.5 -36.5t25.5 -35t24.5 -24.5q49 -39 85 -56.5t97 -25.5v-35h-237q-59 0 -96 9t-68 43t-46 62.5 t-50 102.5l-113 236q-47 96 -94 126.5t-123 30.5h-78v-538l203 -37v-35h-610zM481 668h142q131 0 220 76.5t89 216t-88 215t-221 75.5q-80 0 -142 -12v-571z" />
<glyph unicode="S" horiz-adv-x="1075" d="M102 412l33 4q94 -215 195.5 -301t220.5 -86q113 0 183.5 68.5t70.5 183.5q0 96 -51.5 153.5t-196.5 118.5q-145 57 -201 84q-209 102 -209 321q0 182 123 279.5t281 97.5q113 0 217 -63l84 69h29l34 -393l-32 -4q-86 174 -175.5 253t-193.5 79q-86 0 -143.5 -60.5 t-57.5 -160.5q0 -78 42 -135.5t149 -102.5q29 -12 106.5 -45t120.5 -53q125 -59 182.5 -137t57.5 -189q0 -135 -70 -234.5t-165 -144.5t-195 -45q-174 0 -301 64l-82 -70h-31z" />
<glyph unicode="T" horiz-adv-x="1361" d="M53 936l72 369h1120l74 -369l-23 -12l-125 157q-78 96 -120.5 126t-118.5 30h-137v-1165l217 -37v-35h-639v35l217 37v1165h-152q-76 0 -119 -29.5t-120 -126.5l-125 -157z" />
<glyph unicode="U" horiz-adv-x="1507" d="M53 1270v35h615v-35l-203 -37v-776q0 -211 97 -301t302 -90q174 0 261 111.5t87 287.5v749l-161 56v35h391v-35l-162 -56v-794q0 -197 -143.5 -326t-360.5 -129q-250 0 -385 112.5t-135 336.5v819z" />
<glyph unicode="V" horiz-adv-x="1372" d="M4 1270v35h598v-35l-203 -37l373 -991l373 970l-146 58v35h375v-35l-149 -58l-484 -1224h-69l-488 1235z" />
<glyph unicode="W" horiz-adv-x="1953" d="M4 1270v35h586v-35l-191 -37l275 -969h4l283 817l-48 142l-168 47v35h568v-35l-191 -37l312 -973h4l282 952l-145 58v35h375v-35l-150 -58l-393 -1224h-70l-336 977h-4l-356 -977h-72l-385 1235z" />
<glyph unicode="X" horiz-adv-x="1464" d="M68 1270v35h598v-35l-179 -37l285 -457l309 445l-149 49v35h432v-35l-168 -56l-379 -501l109 -158q106 -158 213 -315l108 -158l180 -47v-35h-598v35l179 37q-309 494 -312 493l-334 -481l150 -49v-35h-432v35l168 55l403 535l-403 598z" />
<glyph unicode="Y" horiz-adv-x="1296" d="M-4 1270v35h598v-35l-176 -37l309 -584l324 572l-150 49v35h420v-35l-162 -56l-385 -616v-526l209 -37v-35h-623v35l209 37v491l-393 660z" />
<glyph unicode="Z" horiz-adv-x="1306" d="M78 20l835 1217h-366q-20 0 -37.5 -1t-34 -6t-27 -7t-24.5 -11.5t-20.5 -12.5t-20.5 -17.5t-19.5 -19.5t-21.5 -23.5t-23 -24.5l-157 -174l-19 14l50 351h989l8 -21l-836 -1214h461q84 0 120 22.5t85 85.5l178 230l19 -9l-54 -399h-1077z" />
<glyph unicode="[" horiz-adv-x="620" d="M180 -360v1878h516v-54h-348v-1771h348v-53h-516z" />
<glyph unicode="\" horiz-adv-x="788" d="M-20 1489l67 29l410 -963l422 -954l-68 -31l-410 962z" />
<glyph unicode="]" horiz-adv-x="620" d="M-76 -307h348v1771h-348v54h516v-1878h-516v53z" />
<glyph unicode="^" horiz-adv-x="612" d="M51 1055l248 362h31l231 -362l-24 -21l-230 203l-231 -203z" />
<glyph unicode="_" horiz-adv-x="901" d="M0 0v68h901v-68h-901z" />
<glyph unicode="`" horiz-adv-x="487" d="M62.5 1373.5q3.5 33.5 29.5 51.5q29 16 60.5 5t52.5 -44q18 -29 67 -150.5t76 -174.5l-26 -17q-35 39 -91.5 97.5t-95.5 100.5t-53 65q-23 33 -19.5 66.5z" />
<glyph unicode="a" horiz-adv-x="958" d="M94 170q0 256 529 326v153q0 100 -58.5 154.5t-152.5 54.5q-72 0 -152 -31q63 -51 64 -118q0 -39 -28 -69t-69 -30q-45 0 -71.5 30t-26.5 71q0 94 129 165.5t279 71.5h2q256 0 256 -280v-551q-1 -45 39 -61q24 -9 68 -9q28 0 65 4l4 -22q-31 -23 -97.5 -42.5 t-117.5 -19.5q-117 0 -125 152l-8 4q-156 -156 -310 -156q-100 0 -159.5 54.5t-59.5 148.5zM274 231q0 -66 40 -103.5t108 -37.5q86 1 201 62v284q-184 0 -266.5 -56t-82.5 -149z" />
<glyph unicode="b" horiz-adv-x="1079" d="M-2 1417v21l315 80l9 -5v-694l8 -4q127 135 297 135q147 0 260.5 -131t113.5 -346q0 -207 -149.5 -356.5t-378.5 -149.5q-178 0 -326 76v1286zM322 131q111 -98 258 -98q106 0 172.5 100t66.5 307q0 186 -83 283.5t-230 97.5q-106 0 -184 -47v-643z" />
<glyph unicode="c" horiz-adv-x="929" d="M72 442q0 215 143 361.5t360 146.5q125 0 204 -53t79 -131q0 -53 -31.5 -88t-78.5 -35q-53 0 -85 37t-32 86q0 70 45 121q-39 8 -86 8q-141 0 -237.5 -103.5t-96.5 -310.5q0 -168 87 -277.5t239 -109.5q133 0 288 76l11 -27q-162 -176 -359 -176q-199 0 -324.5 131 t-125.5 344z" />
<glyph unicode="d" horiz-adv-x="1079" d="M78 430q0 215 135 367.5t379 152.5q86 0 156 -14v393l-150 88v21l313 80l9 -5v-1398l135 -54v-20l-277 -76l-10 4l-16 135l-9 5l-51 -46q-102 -96 -241 -96q-152 0 -262.5 124t-110.5 339zM260 465q0 -168 82 -273.5t213 -105.5q119 0 193 78v612q-84 125 -220 125 q-109 0 -188.5 -110.5t-79.5 -325.5z" />
<glyph unicode="e" horiz-adv-x="980" d="M72 444q0 215 131 360.5t321 145.5q184 0 282.5 -109.5t98.5 -287.5h-647q0 -459 324 -459q139 0 301 82l12 -24q-195 -184 -375 -185q-197 0 -322.5 132t-125.5 345zM260 596l449 14q-25 295 -199 295q-100 0 -171 -86t-79 -223z" />
<glyph unicode="f" horiz-adv-x="655" d="M51 823v35l185 53v99q0 270 159 407q111 98 258 99q78 0 122 -33t44 -82q0 -47 -27.5 -76t-74.5 -29q-98 0 -182 150q-125 -74 -125 -359v-182h254v-82h-254v-760l165 -36v-27h-475v27l136 36v760h-185z" />
<glyph unicode="g" horiz-adv-x="1021" d="M45 -205q0 63 59.5 120.5t157.5 90.5l-2 10q-129 41 -129 144q0 106 160 200v11q-172 84 -172 260q0 143 110.5 230t272.5 87q143 0 237 -67q143 92 236 92q49 0 75.5 -25.5t26.5 -66.5q0 -39 -26.5 -68t-65.5 -29q-82 0 -92 84l-119 -14l-4 -10q80 -80 80 -191 q0 -150 -102.5 -243t-266.5 -93q-82 0 -155 33q-45 -43 -45 -131q0 -45 34.5 -62.5t114.5 -19.5l252 -4q156 -2 225.5 -56t69.5 -163q0 -133 -140.5 -238.5t-381.5 -105.5q-190 0 -300 65.5t-110 159.5zM217 -178q0 -86 82 -141.5t229 -55.5q139 0 223.5 63.5t84.5 147.5 q0 147 -191 154l-340 4q-88 -57 -88 -172zM303 631q0 -147 47 -210t144 -63q80 0 126 76t46 197t-50.5 198.5t-140.5 77.5q-172 0 -172 -276z" />
<glyph unicode="h" horiz-adv-x="1163" d="M51 1417v21l316 80l8 -5v-725l8 -4q174 166 344 166q131 0 198.5 -83t67.5 -201v-603l135 -36v-27h-436v27l129 36v515q0 229 -211 229q-125 0 -235 -64v-680l127 -36v-27h-436v27l135 36v1266z" />
<glyph unicode="i" horiz-adv-x="575" d="M72 0v27l143 36v711l-135 86v19l299 73l8 -6v-883l137 -36v-27h-452zM186 1251q0 49 36 86t85 37q47 0 79 -31.5t32 -78.5q0 -49 -36 -87t-87 -38q-47 0 -78 31.5t-31 80.5z" />
<glyph unicode="j" horiz-adv-x="548" d="M-102 -313q0 47 27.5 73.5t70.5 26.5q49 0 85 -43t44 -117q49 29 69.5 75t20.5 138v934l-135 86v19l301 73l8 -6v-944q0 -119 -25.5 -191.5t-78.5 -134.5q-90 -106 -242 -106q-63 0 -104 36t-41 81zM180 1251q0 49 36 86t85 37q47 0 79 -31.5t32 -78.5q0 -49 -36 -87 t-87 -38q-47 0 -78 31.5t-31 80.5z" />
<glyph unicode="k" horiz-adv-x="1062" d="M51 1417v21l316 80l8 -5v-1005h92l268 317l-108 72v21h377v-27l-138 -53l-295 -299l359 -469l114 -43v-27h-401v27l82 43l-268 376h-82v-383l114 -36v-27h-432v27l144 36v1266z" />
<glyph unicode="l" horiz-adv-x="550" d="M51 1417v21l316 80l8 -5v-1450l135 -36v-27h-453v27l144 36v1266z" />
<glyph unicode="m" horiz-adv-x="1703" d="M70 0v27l135 36v711l-133 86v19l286 73l9 -6l-5 -164l9 -4q182 172 334 172q176 0 231 -180l10 -4q197 186 340 186q129 0 188.5 -82t59.5 -204v-603l137 -36v-27h-438v27l129 36v515q0 119 -44 174t-144 55q-59 0 -102.5 -16.5t-117.5 -59.5v-668l136 -36v-27h-437v27 l127 36v527q0 119 -43 168t-145.5 49t-212.5 -64v-680l127 -36v-27h-436z" />
<glyph unicode="n" horiz-adv-x="1142" d="M70 0v27l135 36v711l-133 86v19l286 73l9 -6l-5 -164l9 -4q184 172 350 172q129 0 190.5 -81.5t61.5 -202.5v-603l135 -36v-27h-436v27l129 36v515q0 119 -45 174t-148 55q-119 0 -229 -64v-680l127 -36v-27h-436z" />
<glyph unicode="o" horiz-adv-x="1062" d="M72 459q0 205 129 348t346 143q213 0 328.5 -134t115.5 -351q0 -207 -128 -352.5t-345 -145.5q-211 0 -328.5 137.5t-117.5 354.5zM270 453q0 -213 77 -327t192 -114q117 0 185.5 115t68.5 338q0 215 -74 327.5t-195 112.5q-113 0 -183.5 -115.5t-70.5 -336.5z" />
<glyph unicode="p" horiz-adv-x="1126" d="M59 -403l136 49v1128l-134 86v19l287 73l8 -6l-4 -164l8 -4q162 172 322 172q158 0 262.5 -128t104.5 -337t-138.5 -363.5t-361.5 -154.5q-90 0 -180 23v-344l155 -49v-27h-465v27zM369 119q111 -98 233 -99q109 0 186.5 108.5t77.5 315.5q0 172 -78.5 274.5 t-218.5 102.5q-100 0 -200 -71v-631z" />
<glyph unicode="q" horiz-adv-x="1054" d="M78 428q0 213 134 367.5t366 154.5q98 0 235 -47l88 88l19 -4v-1341l135 -49v-27h-465v27l155 49v446l-8 6l-59 -47q-106 -84 -223 -84q-154 0 -265.5 122t-111.5 339zM260 465q0 -170 82 -277.5t213 -107.5q119 0 193 78v618q-84 125 -222 125q-109 0 -187.5 -110.5 t-78.5 -325.5z" />
<glyph unicode="r" horiz-adv-x="806" d="M70 0v27l135 36v711l-133 86v19l286 73l9 -6l-5 -201l9 -6q49 94 122.5 152.5t145.5 58.5q66 0 101.5 -34.5t35.5 -84t-28.5 -80t-75.5 -30.5q-41 0 -72 29.5t-39 78.5q-55 -4 -107.5 -42.5t-74.5 -90.5v-633l141 -36v-27h-450z" />
<glyph unicode="s" horiz-adv-x="798" d="M88 25v258l43 4q96 -266 272 -267q82 0 130.5 46.5t48.5 126.5q0 39 -16.5 69.5t-55.5 56t-65.5 38t-86.5 36.5q-61 27 -95 44.5t-77 50t-63.5 76.5t-20.5 102q0 123 88.5 204.5t233.5 81.5q137 0 242 -39l6 -231l-37 -10q-113 229 -248 229q-70 0 -112 -38t-42 -101 q0 -39 16.5 -69.5t57.5 -56.5t66.5 -38t87 -39t96.5 -44t80 -51t65.5 -79t20.5 -104q0 -141 -100.5 -226.5t-254 -85.5t-280.5 56z" />
<glyph unicode="t" horiz-adv-x="677" d="M39 825v27l160 106l120 187h35v-232h312v-88h-312v-557q0 -117 49 -149q43 -25 152 -25q29 0 115 4l2 -20q-154 -94 -289 -94q-113 0 -157 51t-44 164v626h-143z" />
<glyph unicode="u" horiz-adv-x="1114" d="M49 860v19l299 73l8 -6v-606q0 -119 45 -175t146 -56q115 0 229 65v614l-135 72v19l299 73l8 -6v-831l135 -54v-20l-286 -72l-9 4l5 162l-9 4q-184 -172 -350 -172q-129 0 -190.5 82t-61.5 203v536z" />
<glyph unicode="v" horiz-adv-x="1013" d="M6 891v27h469v-27l-143 -43l246 -637h8l104 268l125 352l-131 60v27h360v-27l-149 -64l-348 -850h-49l-365 871z" />
<glyph unicode="w" horiz-adv-x="1437" d="M-20 891v27h460v-27l-137 -43l207 -619h10q6 12 15.5 34t35 80t48 108.5t45 103.5t36.5 84l15 31l-15 43l-28 90l-17 45l-112 43v27h436v-27l-137 -43l186 -619h10l215 602l-129 60v27h361v-27l-150 -64l-336 -850h-49l-202 601l-273 -601h-51l-320 871z" />
<glyph unicode="x" horiz-adv-x="1056" d="M35 891v27h475v-27l-131 -43l186 -295l201 283l-104 55v27h348v-27l-150 -64l-262 -325l311 -432l125 -43v-27h-475v27l131 43l-194 303l-203 -291l102 -55v-27h-346v27l150 61l262 334l-299 426z" />
<glyph unicode="y" horiz-adv-x="1003" d="M6 891v27h467v-27l-143 -43l239 -637h11l221 620l-129 60v27h350v-27l-139 -64l-404 -1007q-100 -250 -268 -250q-68 0 -102.5 34t-34.5 81q0 41 30.5 69.5t73.5 28.5q72 0 144 -96q59 57 106 159l59 136l-356 866z" />
<glyph unicode="z" horiz-adv-x="950" d="M57 14l578 846h-307l-199 -229l-23 12l25 275h741l7 -15l-580 -846h336l215 230l24 -13l-32 -274h-779z" />
<glyph unicode="{" horiz-adv-x="681" d="M23 567v33q152 18 213 81.5t61 213.5v268q0 106 26.5 175t83 106t123 53t168.5 21v-41q-135 -23 -182 -74t-47 -189v-251q0 -203 -66.5 -276t-222.5 -101v-4q156 -27 222.5 -100.5t66.5 -274.5v-266q0 -137 47 -188.5t182 -74.5v-38q-209 10 -305 80.5t-96 273.5v280 q0 150 -61.5 213.5t-212.5 79.5z" />
<glyph unicode="|" horiz-adv-x="548" d="M238 -494l6 965l-6 965h73l-6 -965l6 -965h-73z" />
<glyph unicode="}" horiz-adv-x="681" d="M-16 -322q135 23 183 74t48 189v266q0 201 66.5 274.5t222.5 100.5v4q-156 29 -222.5 101.5t-66.5 275.5v251q0 137 -48 188.5t-183 74.5v41q209 -10 306 -81t97 -274v-268q0 -150 60.5 -213.5t211.5 -81.5v-33q-152 -16 -212 -79.5t-60 -213.5v-280q0 -106 -26.5 -176 t-83 -107t-124 -52t-169.5 -19v38z" />
<glyph unicode="~" horiz-adv-x="739" d="M82 551q33 203 166 203q55 0 149.5 -36t130.5 -36q70 0 103 86l26 -12q-31 -203 -163 -203q-53 0 -149.5 36t-133.5 36q-66 0 -102 -84z" />
<glyph unicode="&#xa1;" horiz-adv-x="548" d="M152 698.5q0 51.5 35.5 87t87 35.5t87 -35.5t35.5 -87t-35.5 -87.5t-87 -36t-87 36t-35.5 87.5zM158 -416q0 98 92 848h45q92 -750 92 -848q0 -61 -31.5 -95t-83 -34t-83 34t-31.5 95z" />
<glyph unicode="&#xa2;" horiz-adv-x="966" d="M82 444q0 197 130 339.5t318 162.5l13 152l69 -8l-12 -140q141 -2 221 -64.5t80 -144.5q0 -63 -30.5 -99t-82.5 -36q-88 0 -109.5 86t40.5 158q-41 41 -123 47l-41 -453l-27 -340q33 -8 78 -8q141 0 287 76l12 -27q-176 -188 -387 -174l-12 -168l-72 9l17 165 q-164 31 -266.5 158t-102.5 309zM268 483q0 -123 51.5 -218t143.5 -138l31 324l32 440q-104 -23 -181 -127.5t-77 -280.5z" />
<glyph unicode="&#xa3;" horiz-adv-x="1122" d="M51 55q0 57 58.5 96t175.5 46q104 129 104 270q0 66 -27 125h-268v82h232q-45 92 -45 184q0 176 144 302t327 126q133 0 190 -47t57 -100q0 -49 -32.5 -84t-81.5 -35q-59 0 -111.5 54t-71.5 151q-106 -25 -161.5 -104t-55.5 -189q0 -123 74 -258h299v-82h-278 q2 -12 2 -39q0 -106 -59.5 -198.5t-168.5 -147.5l2 -14q78 8 257.5 -6.5t209.5 -14.5q82 0 123 47t64 150l45 -2q-14 -168 -88 -283t-195 -115q-141 0 -453 152q-27 -70 -73.5 -111t-95.5 -41q-98 0 -99 86z" />
<glyph unicode="&#xa4;" horiz-adv-x="1118" d="M27 461v67h116q-2 18 -2 58q1 61 11 129h-125v67h137q55 227 216 365.5t357 138.5q125 0 204 -53t79 -131q0 -53 -32 -88t-79 -35q-86 0 -110.5 84t39.5 160q-39 8 -86 8q-137 0 -246 -112.5t-141 -336.5h540v-67h-547q-4 -57 -4 -90q0 -51 6 -97h545v-67h-532 q41 -174 158.5 -274.5t269.5 -100.5q115 0 229 49l12 -24q-131 -141 -331.5 -141.5t-361.5 129.5t-197 362h-125z" />
<glyph unicode="&#xa5;" horiz-adv-x="1318" d="M41 1219v34h580v-34l-179 -37l275 -518l291 505l-150 50v34h418v-34l-160 -56l-334 -524h320v-70h-346v-135h346v-69h-346v-293l211 -37v-35h-619v35l209 37v293h-344v69h344v135h-344v70h313l-317 532z" />
<glyph unicode="&#xa6;" horiz-adv-x="548" d="M238 350h73l-6 -422l6 -422h-73l6 422zM238 592l6 422l-6 422h73l-6 -422l6 -422h-73z" />
<glyph unicode="&#xa7;" horiz-adv-x="972" d="M117 -2q0 49 32.5 83t79.5 34t77 -31t30 -76q0 -43 -27 -94q55 -66 148 -66q88 0 159.5 61.5t104.5 162.5q-598 395 -598 800q0 213 128 357.5t306 144.5q133 0 215 -59.5t82 -138.5q0 -51 -33 -85t-78 -34q-47 0 -76.5 30.5t-29.5 75.5q0 49 25 97q-53 63 -148 63 q-90 0 -164 -63.5t-104 -169.5q604 -385 604 -791q0 -209 -129 -354.5t-307 -145.5q-133 0 -215 58.5t-82 140.5zM229 961q0 -63 16.5 -128t59.5 -143t75 -129t110.5 -147.5t113.5 -137t131 -151.5q8 35 8 88q0 76 -30.5 161t-67.5 152.5t-120 172t-132 160.5t-157 177 q-7 -36 -7 -75z" />
<glyph unicode="&#xa8;" horiz-adv-x="659" d="M51 1219q0 45 32 77.5t79 32.5q43 0 70.5 -28.5t27.5 -71.5q0 -45 -31.5 -78t-78.5 -33q-43 0 -71 29t-28 72zM399 1219q0 45 32 77.5t79 32.5q43 0 70.5 -28.5t27.5 -71.5q0 -45 -31.5 -78t-78.5 -33q-43 0 -71 29t-28 72z" />
<glyph unicode="&#xa9;" horiz-adv-x="1503" d="M68 653q0 283 200.5 482.5t483 199.5t483.5 -199.5t201 -482.5q0 -285 -201 -484.5t-483.5 -199.5t-483 200t-200.5 484zM119 653q0 -264 185 -450.5t447.5 -186.5t447.5 186.5t185 450.5q0 262 -185 448.5t-447.5 186.5t-447.5 -186.5t-185 -448.5zM401 645 q0 154 107.5 261.5t267.5 107.5q92 0 158 -33l37 37h24l13 -248l-29 -2q-92 203 -234 203q-80 0 -136 -75.5t-56 -231.5q0 -154 68.5 -239t179.5 -85q49 0 73 12l127 162l21 -4l-23 -168q-109 -51 -227 -51q-166 0 -268.5 97t-102.5 257z" />
<glyph unicode="&#xaa;" horiz-adv-x="811" d="M113 791q0 186 381 221v114q0 141 -154 142q-45 0 -100 -19q51 -39 51 -90q0 -31 -21.5 -52.5t-54.5 -21.5q-35 0 -56.5 22.5t-21.5 53.5q0 72 97.5 123t207.5 51q193 0 193 -196v-375q0 -63 119 -57l4 -21q-74 -39 -158 -39q-92 0 -98 101l-8 2q-106 -102 -218 -103 q-76 0 -119.5 39t-43.5 105zM258 834q0 -47 28.5 -74t75.5 -27q51 0 132 43v195q-236 -6 -236 -137z" />
<glyph unicode="&#xab;" horiz-adv-x="964" d="M61 449v20l402 387l37 -33l-244 -364l244 -367l-37 -31zM424 449v20l401 387l37 -33l-244 -364l244 -367l-37 -31z" />
<glyph unicode="&#xac;" horiz-adv-x="1034" d="M84 580v96h866v-96h-866z" />
<glyph unicode="&#xad;" horiz-adv-x="688" d="M102 422v117h484v-117h-484z" />
<glyph unicode="&#xae;" horiz-adv-x="770" d="M78 1028q0 131 88 219t219 88t219 -88t88 -219t-88 -219t-219 -88t-219 88t-88 219zM117 1028q0 -117 76.5 -195.5t191.5 -78.5t191.5 78.5t76.5 195.5t-76.5 196t-191.5 79t-191.5 -79t-76.5 -196zM231 877v18l56 12v250l-56 14v19h175q53 0 81.5 -22.5t28.5 -55.5 q0 -66 -88 -80v-8q41 -8 61 -51q23 -51 35 -62q16 -14 43 -16v-18h-61q-27 0 -39 10t-25 43l-22 53q-12 31 -55 31h-17v-107l53 -12v-18h-170zM348 1038h23q80 0 80 66q0 61 -72 61h-31v-127z" />
<glyph unicode="&#xaf;" horiz-adv-x="657" d="M72 1104v82h514v-82h-514z" />
<glyph unicode="&#xb0;" horiz-adv-x="786" d="M78 1028q0 121 89 214t234 93q141 0 224.5 -90t83.5 -215q0 -121 -89.5 -215t-232.5 -94q-141 0 -225 91t-84 216zM219 1026q0 -113 49 -185.5t127 -72.5q80 0 126 72.5t46 189.5q0 115 -48 186.5t-128 71.5q-78 0 -125 -72.5t-47 -189.5z" />
<glyph unicode="&#xb1;" horiz-adv-x="1034" d="M127 0v90h786v-90h-786zM147 571v93h324v323h94v-323h324v-93h-324v-325h-94v325h-324z" />
<glyph unicode="&#xb2;" horiz-adv-x="1024" d="M51 -410v2048h922v-2048h-922z" />
<glyph unicode="&#xb3;" horiz-adv-x="1024" d="M51 -410v2048h922v-2048h-922z" />
<glyph unicode="&#xb4;" horiz-adv-x="487" d="M115 1061q23 49 52.5 124t52 127t36.5 74q23 33 53.5 44t59.5 -5q27 -18 30.5 -52t-18.5 -66q-14 -23 -54 -65t-96.5 -99.5t-91.5 -98.5z" />
<glyph unicode="&#xb6;" horiz-adv-x="1468" d="M123 608q0 352 233.5 565t638.5 213h422v-32l-225 -39v-1413l225 -37v-35h-434q-416 0 -638 211t-222 567zM965 -102l159 4v1413l-159 4v-1421z" />
<glyph unicode="&#xb7;" horiz-adv-x="432" d="M92 651q0 51 37 87t88 36t87 -36t36 -87t-36 -87t-87 -36t-88 36t-37 87z" />
<glyph unicode="&#xb8;" horiz-adv-x="577" d="M-14 -424q0 29 16 47.5t43 18.5q55 0 55 -62q0 -27 -20 -47q25 -14 55 -14q100 0 101 119q0 55 -30 88.5t-87 33.5q-25 0 -60 -10l-30 35l286 240l66 -7l-203 -170q76 -10 122 -57t46 -119q0 -84 -61.5 -137t-155.5 -53q-68 0 -105.5 26.5t-37.5 67.5z" />
<glyph unicode="&#xb9;" horiz-adv-x="1024" d="M51 -410v2048h922v-2048h-922z" />
<glyph unicode="&#xba;" horiz-adv-x="827" d="M76 991q0 141 94 242.5t254 101.5q158 0 243 -94t85 -246q0 -143 -94.5 -245.5t-254.5 -102.5q-158 0 -242.5 96.5t-84.5 247.5zM233 989q0 -147 51.5 -225t133.5 -78q84 0 130 78.5t46 230.5q0 147 -49 225t-135 78q-80 0 -128.5 -79.5t-48.5 -229.5z" />
<glyph unicode="&#xbb;" horiz-adv-x="964" d="M102 92l244 367l-244 364l37 33l402 -387v-20l-402 -388zM465 92l244 367l-244 364l37 33l401 -387v-20l-401 -388z" />
<glyph unicode="&#xbc;" horiz-adv-x="1024" d="M51 -410v2048h922v-2048h-922z" />
<glyph unicode="&#xbd;" horiz-adv-x="1024" d="M51 -410v2048h922v-2048h-922z" />
<glyph unicode="&#xbe;" horiz-adv-x="1024" d="M51 -410v2048h922v-2048h-922z" />
<glyph unicode="&#xbf;" horiz-adv-x="753" d="M57 -211q0 98 58.5 169t187.5 134q109 53 146.5 88t37.5 86q0 47 -34.5 77t-90.5 30q-45 0 -112 -15l-10 23q55 55 163 55q98 0 169 -52t71 -138q0 -84 -52 -148.5t-169 -130.5q-106 -59 -155.5 -116.5t-49.5 -141.5q0 -88 54.5 -146.5t146.5 -58.5q76 0 119 45 q-29 49 -29 103q0 51 31.5 85t81 34t83 -35t33.5 -88q0 -84 -87 -138.5t-220 -54.5q-162 0 -267.5 98.5t-105.5 235.5zM326 698.5q0 51.5 35.5 87t87 35.5t87 -35.5t35.5 -87t-35.5 -87.5t-87 -36t-87 36t-35.5 87.5z" />
<glyph unicode="&#xc0;" horiz-adv-x="1288" d="M-33 0v35l146 55l471 1227h96l473 -1235l166 -47v-35h-584v35l203 37l-152 407h-448l-148 -395l148 -49v-35h-371zM362 547h398l-197 528h-4zM429 1764.5q3 33.5 30 52.5q29 16 60.5 4.5t51.5 -43.5q18 -29 67.5 -151t76.5 -175l-27 -16q-35 39 -91 97t-95 100t-53 65 q-23 33 -20 66.5z" />
<glyph unicode="&#xc1;" horiz-adv-x="1288" d="M-33 0v35l146 55l471 1227h96l473 -1235l166 -47v-35h-584v35l203 37l-152 407h-448l-148 -395l148 -49v-35h-371zM362 547h398l-197 528h-4zM582 1452q23 49 52.5 124t52 127t36.5 75q23 33 53.5 44t59.5 -5q27 -18 30.5 -52t-18.5 -67q-14 -23 -54 -65t-96.5 -99 t-91.5 -98z" />
<glyph unicode="&#xc2;" horiz-adv-x="1288" d="M-33 0v35l146 55l471 1227h96l473 -1235l166 -47v-35h-584v35l203 37l-152 407h-448l-148 -395l148 -49v-35h-371zM362 547h398l-197 528h-4zM383 1421l248 363h31l231 -363l-25 -20l-229 203l-231 -203z" />
<glyph unicode="&#xc3;" horiz-adv-x="1288" d="M-33 0v35l146 55l471 1227h96l473 -1235l166 -47v-35h-584v35l203 37l-152 407h-448l-148 -395l148 -49v-35h-371zM354 1481q33 203 166 202q53 0 149.5 -35.5t131.5 -35.5q70 0 102 86l27 -12q-31 -203 -164 -203q-53 0 -149.5 35.5t-133.5 35.5q-66 0 -102 -84z M362 547h398l-197 528h-4z" />
<glyph unicode="&#xc4;" horiz-adv-x="1288" d="M-33 0v35l146 55l471 1227h96l473 -1235l166 -47v-35h-584v35l203 37l-152 407h-448l-148 -395l148 -49v-35h-371zM360 1610q0 45 32 77.5t79 32.5q43 0 70.5 -28.5t27.5 -71.5q0 -45 -31.5 -78t-78.5 -33q-43 0 -71 29t-28 72zM362 547h398l-197 528h-4zM709 1610 q0 45 31.5 77.5t78.5 32.5q43 0 71 -28.5t28 -71.5q0 -45 -32 -78t-79 -33q-43 0 -70.5 29t-27.5 72z" />
<glyph unicode="&#xc5;" horiz-adv-x="1288" d="M-33 0v35l146 55l465 1213q-61 14 -98.5 63t-37.5 115q0 72 54.5 127t138.5 55q82 0 132 -52t50 -130q0 -57 -37 -106.5t-96 -67.5l469 -1225l166 -47v-35h-584v35l203 37l-152 407h-448l-148 -395l148 -49v-35h-371zM362 547h398l-197 528h-4zM532 1479q0 -70 27 -108 t72 -38q94 0 94 148q0 145 -98 145q-95 0 -95 -147z" />
<glyph unicode="&#xc6;" horiz-adv-x="1888" d="M-74 0v35l146 55l747 1127l-196 53v35h1054l49 -351l-20 -14l-158 174q-6 6 -22.5 24.5t-21.5 23.5l-19.5 19.5t-20.5 17.5t-20 12.5t-24.5 11.5t-27 7t-34 6t-37.5 1h-264v-551h108q90 0 134 42t73 151l19 67h30v-575h-30l-19 63q-29 109 -73 152t-134 43h-108v-559h358 q84 0 120 22.5t85 85.5l180 230l19 -9l-56 -399h-1114v35l203 37v465h-391l-287 -453l150 -49v-35h-398zM504 604h348v541h-4z" />
<glyph unicode="&#xc7;" horiz-adv-x="1341" d="M82 639q0 289 200.5 492.5t501.5 203.5q180 0 301 -63l89 69h22l16 -438l-32 -4q-102 205 -213 291t-267 86q-152 0 -266.5 -152.5t-114.5 -449.5q0 -301 146.5 -468t368.5 -167q94 0 159 29l232 288l18 -8l-39 -270q-174 -92 -336 -105l-149 -125q76 -10 122 -57 t46 -119q0 -84 -61.5 -137t-155.5 -53q-68 0 -106 26.5t-38 67.5q0 29 16.5 47.5t43.5 18.5q55 0 55 -62q0 -27 -20 -47q25 -14 55 -14q100 0 100 119q0 55 -29.5 88.5t-87.5 33.5q-25 0 -59 -10l-31 35l222 184q-317 -2 -513 182.5t-196 487.5z" />
<glyph unicode="&#xc8;" horiz-adv-x="1312" d="M74 0v35l202 37v1161l-202 37v35h1026l49 -351l-19 -14l-157 174q-6 6 -22.5 24.5t-21.5 23.5l-19.5 19.5t-20.5 17.5t-20.5 12.5t-24.5 11.5t-26.5 7t-34 6t-38.5 1h-264v-551h109q90 0 134 42t73 151l18 67h31v-575h-31l-18 63q-29 109 -73 152t-134 43h-109v-559h359 q84 0 119.5 22.5t84.5 85.5l179 230l20 -9l-55 -399h-1114zM418.5 1754.5q3.5 33.5 30.5 51.5q29 16 60.5 5t51.5 -44q18 -29 67.5 -150.5t76.5 -174.5l-27 -17q-35 39 -91.5 97.5t-95 100.5t-53.5 65q-23 33 -19.5 66.5z" />
<glyph unicode="&#xc9;" horiz-adv-x="1312" d="M74 0v35l202 37v1161l-202 37v35h1026l49 -351l-19 -14l-157 174q-6 6 -22.5 24.5t-21.5 23.5l-19.5 19.5t-20.5 17.5t-20.5 12.5t-24.5 11.5t-26.5 7t-34 6t-38.5 1h-264v-551h109q90 0 134 42t73 151l18 67h31v-575h-31l-18 63q-29 109 -73 152t-134 43h-109v-559h359 q84 0 119.5 22.5t84.5 85.5l179 230l20 -9l-55 -399h-1114zM571 1442q23 49 52.5 123.5t52 127t37.5 74.5q23 33 53 44t59 -5q27 -18 31 -52t-18 -66q-14 -23 -54.5 -65t-96.5 -99.5t-91 -98.5z" />
<glyph unicode="&#xca;" horiz-adv-x="1312" d="M74 0v35l202 37v1161l-202 37v35h1026l49 -351l-19 -14l-157 174q-6 6 -22.5 24.5t-21.5 23.5l-19.5 19.5t-20.5 17.5t-20.5 12.5t-24.5 11.5t-26.5 7t-34 6t-38.5 1h-264v-551h109q90 0 134 42t73 151l18 67h31v-575h-31l-18 63q-29 109 -73 152t-134 43h-109v-559h359 q84 0 119.5 22.5t84.5 85.5l179 230l20 -9l-55 -399h-1114zM373 1436l248 362h30l232 -362l-25 -21l-229 203l-232 -203z" />
<glyph unicode="&#xcb;" horiz-adv-x="1312" d="M74 0v35l202 37v1161l-202 37v35h1026l49 -351l-19 -14l-157 174q-6 6 -22.5 24.5t-21.5 23.5l-19.5 19.5t-20.5 17.5t-20.5 12.5t-24.5 11.5t-26.5 7t-34 6t-38.5 1h-264v-551h109q90 0 134 42t73 151l18 67h31v-575h-31l-18 63q-29 109 -73 152t-134 43h-109v-559h359 q84 0 119.5 22.5t84.5 85.5l179 230l20 -9l-55 -399h-1114zM350 1599q0 45 32 78t79 33q43 0 70.5 -28.5t27.5 -71.5q0 -45 -31.5 -78t-78.5 -33q-43 0 -71 28.5t-28 71.5zM698 1599q0 45 32 78t79 33q43 0 70.5 -28.5t27.5 -71.5q0 -45 -31.5 -78t-78.5 -33q-43 0 -71 28.5 t-28 71.5z" />
<glyph unicode="&#xcc;" horiz-adv-x="819" d="M96 0v35l211 37v1161l-211 37v35h625v-35l-209 -37v-1161l209 -37v-35h-625zM197.5 1754.5q3.5 33.5 29.5 51.5q29 16 60.5 5t52.5 -44q18 -29 67 -150.5t76 -174.5l-26 -17q-35 39 -91.5 97.5t-95.5 100.5t-53 65q-23 33 -19.5 66.5z" />
<glyph unicode="&#xcd;" horiz-adv-x="819" d="M96 0v35l211 37v1161l-211 37v35h625v-35l-209 -37v-1161l209 -37v-35h-625zM350 1442q23 49 52.5 123.5t52 127t37.5 74.5q23 33 53 44t59 -5q27 -18 31 -52t-19 -66q-14 -23 -54 -65t-96 -99.5t-91 -98.5z" />
<glyph unicode="&#xce;" horiz-adv-x="819" d="M96 0v35l211 37v1161l-211 37v35h625v-35l-209 -37v-1161l209 -37v-35h-625zM152 1436l247 362h31l232 -362l-25 -21l-229 203l-232 -203z" />
<glyph unicode="&#xcf;" horiz-adv-x="819" d="M96 0v35l211 37v1161l-211 37v35h625v-35l-209 -37v-1161l209 -37v-35h-625zM129 1599q0 45 32 78t79 33q43 0 70.5 -28.5t27.5 -71.5q0 -45 -32 -78t-79 -33q-43 0 -70.5 28.5t-27.5 71.5zM477 1599q0 45 32 78t79 33q43 0 70.5 -28.5t27.5 -71.5q0 -45 -32 -78t-79 -33 q-43 0 -70.5 28.5t-27.5 71.5z" />
<glyph unicode="&#xd0;" horiz-adv-x="1497" d="M74 0v35l202 37v571h-174v68h174v522l-202 37v35h628q328 0 520.5 -184.5t192.5 -467.5q0 -281 -203.5 -467t-521.5 -186h-616zM481 68h226q219 0 346 140t127 445q0 301 -141.5 442.5t-376.5 141.5h-181v-526h238v-68h-238v-575z" />
<glyph unicode="&#xd1;" horiz-adv-x="1525" d="M104 0v35l162 55v1127l-162 53v35h385l154 -209l545 -719h12v837l-162 56v35h394v-35l-162 -56v-1226h-58l-153 209l-711 933h-14v-1040l162 -55v-35h-392zM485 1470q33 203 166 203q53 0 149.5 -35.5t131.5 -35.5q70 0 102 86l27 -13q-31 -203 -164 -202 q-53 0 -149.5 35.5t-133.5 35.5q-66 0 -102 -84z" />
<glyph unicode="&#xd2;" d="M82 653q0 285 179 483.5t466 198.5q297 0 465 -195.5t168 -486.5q0 -287 -179.5 -485.5t-465.5 -198.5q-297 0 -465 196.5t-168 487.5zM317 653q0 -172 37 -300t100.5 -198.5t135.5 -104.5t153 -34q154 0 267.5 167t113.5 470q0 299 -129 467t-297 168 q-162 0 -271.5 -151.5t-109.5 -483.5zM521 1764.5q3 33.5 30 52.5q29 16 60.5 4.5t52.5 -43.5q18 -29 67 -151t76 -175l-27 -16q-35 39 -91 97t-95 100t-53 65q-23 33 -20 66.5z" />
<glyph unicode="&#xd3;" d="M82 653q0 285 179 483.5t466 198.5q297 0 465 -195.5t168 -486.5q0 -287 -179.5 -485.5t-465.5 -198.5q-297 0 -465 196.5t-168 487.5zM317 653q0 -172 37 -300t100.5 -198.5t135.5 -104.5t153 -34q154 0 267.5 167t113.5 470q0 299 -129 467t-297 168 q-162 0 -271.5 -151.5t-109.5 -483.5zM674 1452q23 49 52.5 124t52 127t36.5 75q23 33 53.5 44t59.5 -5q27 -18 31 -52t-19 -67q-14 -23 -54 -65t-96.5 -99t-91.5 -98z" />
<glyph unicode="&#xd4;" d="M82 653q0 285 179 483.5t466 198.5q297 0 465 -195.5t168 -486.5q0 -287 -179.5 -485.5t-465.5 -198.5q-297 0 -465 196.5t-168 487.5zM317 653q0 -172 37 -300t100.5 -198.5t135.5 -104.5t153 -34q154 0 267.5 167t113.5 470q0 299 -129 467t-297 168 q-162 0 -271.5 -151.5t-109.5 -483.5zM475 1446l248 362h31l231 -362l-24 -21l-230 203l-231 -203z" />
<glyph unicode="&#xd5;" d="M82 653q0 285 179 483.5t466 198.5q297 0 465 -195.5t168 -486.5q0 -287 -179.5 -485.5t-465.5 -198.5q-297 0 -465 196.5t-168 487.5zM317 653q0 -172 37 -300t100.5 -198.5t135.5 -104.5t153 -34q154 0 267.5 167t113.5 470q0 299 -129 467t-297 168 q-162 0 -271.5 -151.5t-109.5 -483.5zM446 1481q33 203 166 202q55 0 149.5 -35.5t131.5 -35.5q70 0 102 86l27 -12q-31 -203 -164 -203q-53 0 -149.5 35.5t-133.5 35.5q-66 0 -102 -84z" />
<glyph unicode="&#xd6;" d="M82 653q0 285 179 483.5t466 198.5q297 0 465 -195.5t168 -486.5q0 -287 -179.5 -485.5t-465.5 -198.5q-297 0 -465 196.5t-168 487.5zM317 653q0 -172 37 -300t100.5 -198.5t135.5 -104.5t153 -34q154 0 267.5 167t113.5 470q0 299 -129 467t-297 168 q-162 0 -271.5 -151.5t-109.5 -483.5zM453 1610q0 45 31.5 77.5t78.5 32.5q43 0 71 -28.5t28 -71.5q0 -45 -32 -78t-79 -33q-43 0 -70.5 29t-27.5 72zM801 1610q0 45 31.5 77.5t78.5 32.5q43 0 71 -28.5t28 -71.5q0 -45 -32 -78t-79 -33q-43 0 -70.5 29t-27.5 72z" />
<glyph unicode="&#xd7;" horiz-adv-x="1034" d="M162 328l293 299l-291 297l67 63l285 -295l285 295l67 -63l-290 -297l292 -299l-67 -64l-287 297l-287 -297z" />
<glyph unicode="&#xd8;" d="M82 653q0 285 179 483.5t466 198.5q264 0 434 -164l127 146l51 -43l-133 -152q154 -180 154 -469q0 -287 -179.5 -485.5t-465.5 -198.5q-242 0 -408 140l-153 -175l-52 41l158 179q-178 195 -178 499zM317 653q1 -219 60 -366l667 753q-61 121 -153 184.5t-193 63.5 q-162 0 -271.5 -151.5t-109.5 -483.5zM408 223q117 -207 335 -207q154 0 267.5 167t113.5 470q0 183 -51 320q-664 -750 -665 -750z" />
<glyph unicode="&#xd9;" horiz-adv-x="1507" d="M53 1270v35h615v-35l-203 -37v-776q0 -211 97 -301t302 -90q174 0 261 111.5t87 287.5v749l-161 56v35h391v-35l-162 -56v-794q0 -197 -143.5 -326t-360.5 -129q-250 0 -385 112.5t-135 336.5v819zM590.5 1754.5q3.5 33.5 30.5 51.5q29 16 60.5 5t51.5 -44 q18 -29 67.5 -150.5t76.5 -174.5l-27 -17q-35 39 -91.5 97.5t-95 100.5t-53.5 65q-23 33 -19.5 66.5z" />
<glyph unicode="&#xda;" horiz-adv-x="1507" d="M53 1270v35h615v-35l-203 -37v-776q0 -211 97 -301t302 -90q174 0 261 111.5t87 287.5v749l-161 56v35h391v-35l-162 -56v-794q0 -197 -143.5 -326t-360.5 -129q-250 0 -385 112.5t-135 336.5v819zM743 1442q23 49 52.5 123.5t52 127t37.5 74.5q23 33 53 44t59 -5 q27 -18 31 -52t-18 -66q-14 -23 -54.5 -65t-96.5 -99.5t-91 -98.5z" />
<glyph unicode="&#xdb;" horiz-adv-x="1507" d="M53 1270v35h615v-35l-203 -37v-776q0 -211 97 -301t302 -90q174 0 261 111.5t87 287.5v749l-161 56v35h391v-35l-162 -56v-794q0 -197 -143.5 -326t-360.5 -129q-250 0 -385 112.5t-135 336.5v819zM545 1436l248 362h30l232 -362l-25 -21l-229 203l-232 -203z" />
<glyph unicode="&#xdc;" horiz-adv-x="1507" d="M53 1270v35h615v-35l-203 -37v-776q0 -211 97 -301t302 -90q174 0 261 111.5t87 287.5v749l-161 56v35h391v-35l-162 -56v-794q0 -197 -143.5 -326t-360.5 -129q-250 0 -385 112.5t-135 336.5v819zM522 1599q0 45 32 78t79 33q43 0 70.5 -28.5t27.5 -71.5 q0 -45 -31.5 -78t-78.5 -33q-43 0 -71 28.5t-28 71.5zM870 1599q0 45 32 78t79 33q43 0 70.5 -28.5t27.5 -71.5q0 -45 -31.5 -78t-78.5 -33q-43 0 -71 28.5t-28 71.5z" />
<glyph unicode="&#xdd;" horiz-adv-x="1296" d="M-4 1270v35h598v-35l-176 -37l309 -584l324 572l-150 49v35h420v-35l-162 -56l-385 -616v-526l209 -37v-35h-623v35l209 37v491l-393 660zM633 1442q23 49 52.5 123.5t52 127t36.5 74.5q23 33 53.5 44t59.5 -5q27 -18 31 -52t-19 -66q-14 -23 -54 -65t-96.5 -99.5 t-91.5 -98.5z" />
<glyph unicode="&#xde;" horiz-adv-x="1212" d="M74 -2v35l202 37v1161l-202 37v35h610v-35l-203 -37v-230q102 18 185 19q225 0 347 -100t122 -258q0 -152 -115 -265.5t-324 -113.5q-84 0 -215 16v-229l203 -37v-35h-610zM481 350q61 -10 137 -10q287 0 287 313q0 147 -73.5 230.5t-208.5 83.5q-70 0 -142 -15v-602z " />
<glyph unicode="&#xdf;" horiz-adv-x="1187" d="M53 823v37l185 53v64q0 262 180 420q135 121 287 121q158 0 245.5 -102.5t87.5 -237.5q0 -96 -75.5 -208t-219.5 -214v-15q369 -231 369 -454q0 -137 -84 -227.5t-215 -90.5q-115 0 -186.5 45t-71.5 113q0 41 26.5 68.5t65.5 27.5q57 0 85 -50t13 -128q31 -31 89 -31 q55 0 92 44t37 116q0 205 -392 465v14q152 154 212.5 261.5t60.5 224.5q0 121 -61.5 203.5t-172.5 82.5q-100 0 -149 -70.5t-49 -238.5v-1053l84 -34v-29h-394v29l136 34v760h-185z" />
<glyph unicode="&#xe0;" horiz-adv-x="958" d="M94 170q0 256 529 326v153q0 100 -58.5 154.5t-152.5 54.5q-72 0 -152 -31q63 -51 64 -118q0 -39 -28 -69t-69 -30q-45 0 -71.5 30t-26.5 71q0 94 129 165.5t279 71.5q258 1 258 -280v-551q0 -45 39.5 -60.5t132.5 -5.5l4 -22q-31 -23 -97.5 -42.5t-117.5 -19.5 q-117 0 -125 152l-8 4q-156 -156 -310 -156q-100 0 -159.5 54.5t-59.5 148.5zM274 231q0 -66 40 -103.5t108 -37.5q86 1 201 62v284q-184 0 -266.5 -56t-82.5 -149zM283.5 1373.5q3.5 33.5 29.5 51.5q29 16 61 5t52 -44q18 -29 67 -150.5t76 -174.5l-26 -17 q-35 39 -91.5 97.5t-95.5 100.5t-53 65q-23 33 -19.5 66.5z" />
<glyph unicode="&#xe1;" horiz-adv-x="958" d="M94 170q0 256 529 326v153q0 100 -58.5 154.5t-152.5 54.5q-72 0 -152 -31q63 -51 64 -118q0 -39 -28 -69t-69 -30q-45 0 -71.5 30t-26.5 71q0 94 129 165.5t279 71.5q258 1 258 -280v-551q0 -45 39.5 -60.5t132.5 -5.5l4 -22q-31 -23 -97.5 -42.5t-117.5 -19.5 q-117 0 -125 152l-8 4q-156 -156 -310 -156q-100 0 -159.5 54.5t-59.5 148.5zM274 231q0 -66 40 -103.5t108 -37.5q86 1 201 62v284q-184 0 -266.5 -56t-82.5 -149zM436 1061q23 49 52.5 124t52 127t37.5 74q23 33 53 44t59 -5q27 -18 31 -52t-19 -66q-14 -23 -54 -65 t-96 -99.5t-91 -98.5z" />
<glyph unicode="&#xe2;" horiz-adv-x="958" d="M94 170q0 256 529 326v153q0 100 -58.5 154.5t-152.5 54.5q-72 0 -152 -31q63 -51 64 -118q0 -39 -28 -69t-69 -30q-45 0 -71.5 30t-26.5 71q0 94 129 165.5t279 71.5q258 1 258 -280v-551q0 -45 39.5 -60.5t132.5 -5.5l4 -22q-31 -23 -97.5 -42.5t-117.5 -19.5 q-117 0 -125 152l-8 4q-156 -156 -310 -156q-100 0 -159.5 54.5t-59.5 148.5zM238 1055l247 362h31l232 -362l-25 -21l-229 203l-232 -203zM274 231q0 -66 40 -103.5t108 -37.5q86 1 201 62v284q-184 0 -266.5 -56t-82.5 -149z" />
<glyph unicode="&#xe3;" horiz-adv-x="958" d="M94 170q0 256 529 326v153q0 100 -58.5 154.5t-152.5 54.5q-72 0 -152 -31q63 -51 64 -118q0 -39 -28 -69t-69 -30q-45 0 -71.5 30t-26.5 71q0 94 129 165.5t279 71.5q258 1 258 -280v-551q0 -45 39.5 -60.5t132.5 -5.5l4 -22q-31 -23 -97.5 -42.5t-117.5 -19.5 q-117 0 -125 152l-8 4q-156 -156 -310 -156q-100 0 -159.5 54.5t-59.5 148.5zM209 1090q33 203 166 202q55 0 149 -35.5t131 -35.5q70 0 103 86l26 -13q-31 -203 -163 -202q-53 0 -149.5 35.5t-133.5 35.5q-66 0 -102 -84zM274 231q0 -66 40 -103.5t108 -37.5q86 1 201 62 v284q-184 0 -266.5 -56t-82.5 -149z" />
<glyph unicode="&#xe4;" horiz-adv-x="958" d="M94 170q0 256 529 326v153q0 100 -58.5 154.5t-152.5 54.5q-72 0 -152 -31q63 -51 64 -118q0 -39 -28 -69t-69 -30q-45 0 -71.5 30t-26.5 71q0 94 129 165.5t279 71.5q258 1 258 -280v-551q0 -45 39.5 -60.5t132.5 -5.5l4 -22q-31 -23 -97.5 -42.5t-117.5 -19.5 q-117 0 -125 152l-8 4q-156 -156 -310 -156q-100 0 -159.5 54.5t-59.5 148.5zM215 1219q0 45 32 77.5t79 32.5q43 0 70.5 -28.5t27.5 -71.5q0 -45 -32 -78t-79 -33q-43 0 -70.5 29t-27.5 72zM274 231q0 -66 40 -103.5t108 -37.5q86 1 201 62v284q-184 0 -266.5 -56 t-82.5 -149zM563 1219q0 45 32 77.5t79 32.5q43 0 70.5 -28.5t27.5 -71.5q0 -45 -31.5 -78t-78.5 -33q-43 0 -71 29t-28 72z" />
<glyph unicode="&#xe5;" horiz-adv-x="958" d="M94 170q0 256 529 326v153q0 100 -58.5 154.5t-152.5 54.5q-72 0 -152 -31q63 -51 64 -118q0 -39 -28 -69t-69 -30q-45 0 -71.5 30t-26.5 71q0 94 129 165.5t279 71.5q258 1 258 -280v-551q0 -45 39.5 -60.5t132.5 -5.5l4 -22q-31 -23 -97.5 -42.5t-117.5 -19.5 q-117 0 -125 152l-8 4q-156 -156 -310 -156q-100 0 -159.5 54.5t-59.5 148.5zM274 231q0 -66 40 -103.5t108 -37.5q86 1 201 62v284q-184 0 -266.5 -56t-82.5 -149zM307 1212q0 72 54.5 127.5t138.5 55.5q82 0 132 -52.5t50 -130.5q0 -72 -54.5 -127t-138.5 -55 q-82 0 -132 52.5t-50 129.5zM397 1210q0 -70 27 -107.5t72 -37.5q94 0 94 147q0 145 -98 146q-94 0 -95 -148z" />
<glyph unicode="&#xe6;" horiz-adv-x="1529" d="M94 172q0 256 527 326v151q0 102 -57.5 156.5t-153.5 54.5q-70 0 -150 -31q63 -51 64 -118q0 -39 -28 -69t-69 -30q-45 0 -71.5 30t-26.5 71q0 94 129 165.5t279 71.5q176 0 231 -127q127 127 305 127q184 0 282.5 -109.5t98.5 -287.5h-647q0 -457 323 -457q145 0 302 82 l12 -26q-195 -182 -373 -183q-254 0 -379 203l-8 2q-205 -205 -373 -205q-100 0 -158.5 54.5t-58.5 148.5zM272 233q0 -68 40 -104.5t110 -36.5q115 1 256 107q-55 109 -57 239q-182 0 -265.5 -56t-83.5 -149zM809 598l448 14q-24 295 -198 295q-98 0 -170 -86t-80 -223z " />
<glyph unicode="&#xe7;" horiz-adv-x="929" d="M72 442q0 215 143 361.5t360 146.5q125 0 204 -53t79 -131q0 -53 -31.5 -88t-78.5 -35q-53 0 -85 37t-32 86q0 70 45 121q-39 8 -86 8q-141 0 -237.5 -103.5t-96.5 -310.5q0 -168 87 -277.5t239 -109.5q133 0 288 76l11 -27q-88 -94 -191 -139l-186 -156q76 -10 122 -57 t46 -119q0 -84 -61.5 -137t-155.5 -53q-68 0 -106 26.5t-38 67.5q0 29 16.5 47.5t43.5 18.5q55 0 55 -62q0 -27 -20 -47q25 -14 55 -14q100 0 100 119q0 55 -29.5 88.5t-87.5 33.5q-25 0 -59 -10l-31 35l224 186q-37 -4 -56 -4q-199 0 -324.5 131t-125.5 344z" />
<glyph unicode="&#xe8;" horiz-adv-x="980" d="M72 444q0 215 131 360.5t321 145.5q184 0 282.5 -109.5t98.5 -287.5h-647q0 -459 324 -459q139 0 301 82l12 -24q-195 -184 -375 -185q-197 0 -322.5 132t-125.5 345zM260 596l449 14q-25 295 -199 295q-100 0 -171 -86t-79 -223zM314 1373.5q3 33.5 30 51.5 q29 16 60.5 5t52.5 -44q18 -29 67 -150.5t76 -174.5l-27 -17q-35 39 -91 97.5t-95 100.5t-53 65q-23 33 -20 66.5z" />
<glyph unicode="&#xe9;" horiz-adv-x="980" d="M72 444q0 215 131 360.5t321 145.5q184 0 282.5 -109.5t98.5 -287.5h-647q0 -459 324 -459q139 0 301 82l12 -24q-195 -184 -375 -185q-197 0 -322.5 132t-125.5 345zM260 596l449 14q-25 295 -199 295q-100 0 -171 -86t-79 -223zM467 1061q23 49 52.5 124t52 127 t36.5 74q23 33 53.5 44t59.5 -5q27 -18 31 -52t-19 -66q-14 -23 -54 -65t-96.5 -99.5t-90.5 -98.5z" />
<glyph unicode="&#xea;" horiz-adv-x="980" d="M72 444q0 215 131 360.5t321 145.5q184 0 282.5 -109.5t98.5 -287.5h-647q0 -459 324 -459q139 0 301 82l12 -24q-195 -184 -375 -185q-197 0 -322.5 132t-125.5 345zM260 596l449 14q-25 295 -199 295q-100 0 -171 -86t-79 -223zM268 1055l248 362h31l231 -362l-24 -21 l-230 203l-231 -203z" />
<glyph unicode="&#xeb;" horiz-adv-x="980" d="M72 444q0 215 131 360.5t321 145.5q184 0 282.5 -109.5t98.5 -287.5h-647q0 -459 324 -459q139 0 301 82l12 -24q-195 -184 -375 -185q-197 0 -322.5 132t-125.5 345zM246 1219q0 45 31.5 77.5t78.5 32.5q43 0 71 -28.5t28 -71.5q0 -45 -32 -78t-79 -33q-43 0 -70.5 29 t-27.5 72zM260 596l449 14q-25 295 -199 295q-100 0 -171 -86t-79 -223zM594 1219q0 45 31.5 77.5t79.5 32.5q43 0 70.5 -28.5t27.5 -71.5q0 -45 -32 -78t-79 -33q-43 0 -70.5 29t-27.5 72z" />
<glyph unicode="&#xec;" horiz-adv-x="575" d="M62.5 1373.5q3.5 33.5 29.5 51.5q29 16 60.5 5t52.5 -44q18 -29 67 -150.5t76 -174.5l-26 -17q-35 39 -91.5 97.5t-95.5 100.5t-53 65q-23 33 -19.5 66.5zM72 0v27l143 36v711l-135 86v19l299 73l8 -6v-883l137 -36v-27h-452z" />
<glyph unicode="&#xed;" horiz-adv-x="575" d="M72 0v27l143 36v711l-135 86v19l299 73l8 -6v-883l137 -36v-27h-452zM215 1061q23 49 52.5 124t52 127t36.5 74q23 33 53.5 44t59.5 -5q27 -18 31 -52t-19 -66q-14 -23 -54 -65t-96.5 -99.5t-90.5 -98.5z" />
<glyph unicode="&#xee;" horiz-adv-x="575" d="M16 1055l248 362h31l231 -362l-24 -21l-230 203l-231 -203zM72 0v27l143 36v711l-135 86v19l299 73l8 -6v-883l137 -36v-27h-452z" />
<glyph unicode="&#xef;" horiz-adv-x="575" d="M-6 1219q0 45 31.5 77.5t78.5 32.5q43 0 71 -28.5t28 -71.5q0 -45 -32 -78t-79 -33q-43 0 -70.5 29t-27.5 72zM72 0v27l143 36v711l-135 86v19l299 73l8 -6v-883l137 -36v-27h-452zM342 1219q0 45 32 77.5t79 32.5q43 0 70.5 -28.5t27.5 -71.5q0 -45 -32 -78t-79 -33 q-43 0 -70.5 29t-27.5 72z" />
<glyph unicode="&#xf0;" horiz-adv-x="1087" d="M72 459q0 201 129 345t325 144q123 0 230 -67l6 4q-57 180 -162 319l-188 -82l-23 60l170 73q-113 135 -278 228l16 35q211 -57 385 -209l195 82l22 -58q-166 -72 -168 -71q133 -137 209 -311.5t76 -360.5q0 -270 -137.5 -446.5t-360.5 -176.5q-211 0 -328.5 137.5 t-117.5 354.5zM268 444q0 -188 90.5 -300.5t212.5 -112.5q115 0 180.5 131t65.5 356q0 164 -39 313q-94 37 -192 37q-129 0 -223.5 -115.5t-94.5 -308.5z" />
<glyph unicode="&#xf1;" horiz-adv-x="1142" d="M70 0v27l135 36v711l-133 86v19l286 73l9 -6l-5 -164l9 -4q184 172 350 172q129 0 190.5 -81.5t61.5 -202.5v-603l135 -36v-27h-436v27l129 36v515q0 119 -45 174t-148 55q-119 0 -229 -64v-680l127 -36v-27h-436zM293 1090q33 203 166 202q53 0 149.5 -35.5t130.5 -35.5 q70 0 103 86l26 -13q-31 -203 -163 -202q-53 0 -149.5 35.5t-133.5 35.5q-66 0 -103 -84z" />
<glyph unicode="&#xf2;" horiz-adv-x="1062" d="M72 459q0 205 129 348t346 143q213 0 328.5 -134t115.5 -351q0 -207 -128 -352.5t-345 -145.5q-211 0 -328.5 137.5t-117.5 354.5zM270 453q0 -213 77 -327t192 -114q117 0 185.5 115t68.5 338q0 215 -74 327.5t-195 112.5q-113 0 -183.5 -115.5t-70.5 -336.5z M334.5 1373.5q3.5 33.5 30.5 51.5q29 16 60.5 5t51.5 -44q18 -29 67.5 -150.5t76.5 -174.5l-27 -17q-35 39 -91.5 97.5t-95 100.5t-53.5 65q-23 33 -19.5 66.5z" />
<glyph unicode="&#xf3;" horiz-adv-x="1062" d="M72 459q0 205 129 348t346 143q213 0 328.5 -134t115.5 -351q0 -207 -128 -352.5t-345 -145.5q-211 0 -328.5 137.5t-117.5 354.5zM270 453q0 -213 77 -327t192 -114q117 0 185.5 115t68.5 338q0 215 -74 327.5t-195 112.5q-113 0 -183.5 -115.5t-70.5 -336.5zM487 1061 q23 49 52.5 124t52 127t37.5 74q23 33 53 44t59 -5q27 -18 31 -52t-18 -66q-14 -23 -54.5 -65t-96.5 -99.5t-91 -98.5z" />
<glyph unicode="&#xf4;" horiz-adv-x="1062" d="M72 459q0 205 129 348t346 143q213 0 328.5 -134t115.5 -351q0 -207 -128 -352.5t-345 -145.5q-211 0 -328.5 137.5t-117.5 354.5zM270 453q0 -213 77 -327t192 -114q117 0 185.5 115t68.5 338q0 215 -74 327.5t-195 112.5q-113 0 -183.5 -115.5t-70.5 -336.5zM289 1055 l248 362h30l232 -362l-25 -21l-229 203l-232 -203z" />
<glyph unicode="&#xf5;" horiz-adv-x="1062" d="M72 459q0 205 129 348t346 143q213 0 328.5 -134t115.5 -351q0 -207 -128 -352.5t-345 -145.5q-211 0 -328.5 137.5t-117.5 354.5zM260 1090q33 203 166 202q53 0 149.5 -35.5t131.5 -35.5q70 0 102 86l27 -13q-31 -203 -164 -202q-53 0 -149.5 35.5t-133.5 35.5 q-66 0 -102 -84zM270 453q0 -213 77 -327t192 -114q117 0 185.5 115t68.5 338q0 215 -74 327.5t-195 112.5q-113 0 -183.5 -115.5t-70.5 -336.5z" />
<glyph unicode="&#xf6;" horiz-adv-x="1062" d="M72 459q0 205 129 348t346 143q213 0 328.5 -134t115.5 -351q0 -207 -128 -352.5t-345 -145.5q-211 0 -328.5 137.5t-117.5 354.5zM266 1219q0 45 32 77.5t79 32.5q43 0 70.5 -28.5t27.5 -71.5q0 -45 -31.5 -78t-78.5 -33q-43 0 -71 29t-28 72zM270 453q0 -213 77 -327 t192 -114q117 0 185.5 115t68.5 338q0 215 -74 327.5t-195 112.5q-113 0 -183.5 -115.5t-70.5 -336.5zM614 1219q0 45 32 77.5t79 32.5q43 0 70.5 -28.5t27.5 -71.5q0 -45 -31.5 -78t-78.5 -33q-43 0 -71 29t-28 72z" />
<glyph unicode="&#xf7;" horiz-adv-x="1034" d="M84 582v92h866v-92h-866zM403 313q0 47 34 80t79 33t79 -33t34 -80t-34 -79.5t-79 -32.5t-79 32.5t-34 79.5zM403 942q0 45 34 79t79 34t79 -34t34 -79t-34 -79t-79 -34t-79 34t-34 79z" />
<glyph unicode="&#xf8;" horiz-adv-x="1062" d="M72 459q0 205 129 348t346 143q166 0 280 -88l93 111l51 -43q-94 -113 -94 -115q115 -131 114 -350q0 -207 -128 -352.5t-345 -145.5q-168 0 -280 90l-95 -112l-51 41l98 116q-119 135 -118 357zM270 453q0 -125 29 -222l440 527q-74 147 -215 147q-113 0 -183.5 -115.5 t-70.5 -336.5zM326 162q76 -150 213 -150q117 0 185.5 115t68.5 338q0 121 -27 221z" />
<glyph unicode="&#xf9;" horiz-adv-x="1114" d="M49 860v19l299 73l8 -6v-606q0 -119 45 -175t146 -56q115 0 229 65v614l-135 72v19l299 73l8 -6v-831l135 -54v-20l-286 -72l-9 4l5 162l-9 4q-184 -172 -350 -172q-129 0 -190.5 82t-61.5 203v536zM326.5 1373.5q3.5 33.5 29.5 51.5q29 16 61 5t52 -44q18 -29 67 -150.5 t76 -174.5l-26 -17q-35 39 -91.5 97.5t-95.5 100.5t-53 65q-23 33 -19.5 66.5z" />
<glyph unicode="&#xfa;" horiz-adv-x="1114" d="M49 860v19l299 73l8 -6v-606q0 -119 45 -175t146 -56q115 0 229 65v614l-135 72v19l299 73l8 -6v-831l135 -54v-20l-286 -72l-9 4l5 162l-9 4q-184 -172 -350 -172q-129 0 -190.5 82t-61.5 203v536zM479 1061q23 49 52.5 124t52 127t37.5 74q23 33 53 44t59 -5 q27 -18 31 -52t-19 -66q-14 -23 -54 -65t-96 -99.5t-91 -98.5z" />
<glyph unicode="&#xfb;" horiz-adv-x="1114" d="M49 860v19l299 73l8 -6v-606q0 -119 45 -175t146 -56q115 0 229 65v614l-135 72v19l299 73l8 -6v-831l135 -54v-20l-286 -72l-9 4l5 162l-9 4q-184 -172 -350 -172q-129 0 -190.5 82t-61.5 203v536zM281 1055l247 362h31l232 -362l-25 -21l-229 203l-232 -203z" />
<glyph unicode="&#xfc;" horiz-adv-x="1114" d="M49 860v19l299 73l8 -6v-606q0 -119 45 -175t146 -56q115 0 229 65v614l-135 72v19l299 73l8 -6v-831l135 -54v-20l-286 -72l-9 4l5 162l-9 4q-184 -172 -350 -172q-129 0 -190.5 82t-61.5 203v536zM258 1219q0 45 32 77.5t79 32.5q43 0 70.5 -28.5t27.5 -71.5 q0 -45 -32 -78t-79 -33q-43 0 -70.5 29t-27.5 72zM606 1219q0 45 32 77.5t79 32.5q43 0 70.5 -28.5t27.5 -71.5q0 -45 -31.5 -78t-78.5 -33q-43 0 -71 29t-28 72z" />
<glyph unicode="&#xfd;" horiz-adv-x="1003" d="M6 891v27h467v-27l-143 -43l239 -637h11l221 620l-129 60v27h350v-27l-139 -64l-404 -1007q-100 -250 -268 -250q-68 0 -102.5 34t-34.5 81q0 41 30.5 69.5t73.5 28.5q72 0 144 -96q59 57 106 159l59 136l-356 866zM492 1061q23 49 52 124t51.5 127t37.5 74q23 33 53 44 t59 -5q27 -18 31 -52t-18 -66q-14 -23 -54 -65t-96.5 -99.5t-91.5 -98.5z" />
<glyph unicode="&#xfe;" horiz-adv-x="1079" d="M-2 1417v21l315 80l9 -7v-692l8 -6q125 135 305 135q158 0 262 -127t104 -336t-138 -363.5t-361 -154.5q-90 0 -180 23v-344l155 -49v-27h-465v27l135 49v1683zM322 117q115 -98 233 -99q109 0 186.5 109.5t77.5 316.5q0 170 -78.5 273.5t-218.5 103.5q-100 0 -200 -71 v-633z" />
<glyph unicode="&#xff;" horiz-adv-x="1003" d="M6 891v27h467v-27l-143 -43l239 -637h11l221 620l-129 60v27h350v-27l-139 -64l-404 -1007q-100 -250 -268 -250q-68 0 -102.5 34t-34.5 81q0 41 30.5 69.5t73.5 28.5q72 0 144 -96q59 57 106 159l59 136l-356 866zM270 1219q0 45 32 77.5t79 32.5q43 0 70.5 -28.5 t27.5 -71.5q0 -45 -31.5 -78t-78.5 -33q-43 0 -71 29t-28 72zM618 1219q0 45 32 77.5t79 32.5q43 0 70.5 -28.5t27.5 -71.5q0 -45 -31.5 -78t-78.5 -33q-43 0 -71 29t-28 72z" />
<glyph unicode="&#x152;" horiz-adv-x="2052" d="M82 653q0 279 203.5 465.5t521.5 186.5h1034l49 -351l-20 -14l-158 174q-6 6 -22.5 24.5t-21.5 23.5l-19.5 19.5t-20.5 17.5t-20.5 12.5t-24.5 11.5t-26.5 7t-34 6t-37.5 1h-264v-551h108q92 0 135 41t74 152l18 67h31v-575h-33l-16 63q-31 111 -74 153t-135 42h-108 v-559h360q84 0 120 22.5t85 85.5l178 230l18 -9l-55 -399h-1132q-328 0 -520.5 184.5t-192.5 468.5zM317 653q0 -303 142.5 -444t378.5 -141h178v1169h-225q-219 0 -346.5 -140.5t-127.5 -443.5z" />
<glyph unicode="&#x153;" horiz-adv-x="1712" d="M72 461q0 205 129 347t346 142q244 0 360 -182q129 182 348 182q184 0 282.5 -109.5t98.5 -287.5h-647q0 -457 324 -457q145 0 301 82l12 -26q-195 -182 -373 -183q-242 0 -362 185q-129 -184 -373 -185q-211 0 -328.5 137.5t-117.5 354.5zM270 453q0 -211 77 -325 t190 -114q119 0 187.5 115t68.5 338q0 215 -74 326.5t-195 111.5q-113 0 -183.5 -115.5t-70.5 -336.5zM991 598l449 14q-25 295 -199 295q-98 0 -170 -86t-80 -223z" />
<glyph unicode="&#x178;" horiz-adv-x="1296" d="M-4 1270v35h598v-35l-176 -37l309 -584l324 572l-150 49v35h420v-35l-162 -56l-385 -616v-526l209 -37v-35h-623v35l209 37v491l-393 660zM412 1599q0 45 31.5 78t78.5 33q43 0 71 -28.5t28 -71.5q0 -45 -32 -78t-79 -33q-43 0 -70.5 28.5t-27.5 71.5zM760 1599 q0 45 31.5 78t78.5 33q43 0 71 -28.5t28 -71.5q0 -45 -32 -78t-79 -33q-43 0 -70.5 28.5t-27.5 71.5z" />
<glyph unicode="&#x2c6;" horiz-adv-x="612" d="M51 1055l248 362h31l231 -362l-24 -21l-230 203l-231 -203z" />
<glyph unicode="&#x2dc;" horiz-adv-x="677" d="M51 1090q33 203 166 202q53 0 149.5 -35.5t131.5 -35.5q70 0 102 86l27 -13q-31 -203 -164 -202q-53 0 -149.5 35.5t-133.5 35.5q-66 0 -102 -84z" />
<glyph unicode="&#x2000;" horiz-adv-x="913" />
<glyph unicode="&#x2001;" horiz-adv-x="1826" />
<glyph unicode="&#x2002;" horiz-adv-x="913" />
<glyph unicode="&#x2003;" horiz-adv-x="1826" />
<glyph unicode="&#x2004;" horiz-adv-x="608" />
<glyph unicode="&#x2005;" horiz-adv-x="456" />
<glyph unicode="&#x2006;" horiz-adv-x="304" />
<glyph unicode="&#x2007;" horiz-adv-x="304" />
<glyph unicode="&#x2008;" horiz-adv-x="228" />
<glyph unicode="&#x2009;" horiz-adv-x="365" />
<glyph unicode="&#x200a;" horiz-adv-x="101" />
<glyph unicode="&#x2010;" horiz-adv-x="688" d="M102 422v117h484v-117h-484z" />
<glyph unicode="&#x2011;" horiz-adv-x="688" d="M102 422v117h484v-117h-484z" />
<glyph unicode="&#x2012;" horiz-adv-x="688" d="M102 422v117h484v-117h-484z" />
<glyph unicode="&#x2013;" horiz-adv-x="1105" d="M102 471v68h902v-68h-902z" />
<glyph unicode="&#x2014;" horiz-adv-x="1617" d="M102 471v68h1414v-68h-1414z" />
<glyph unicode="&#x2018;" horiz-adv-x="450" d="M88 1053q0 80 62.5 158.5t183.5 138.5l20 -25q-137 -117 -170 -223l4 -2l21 6q20 6 45 6q45 0 72.5 -29.5t27.5 -74.5q0 -51 -35.5 -88t-87.5 -37q-66 0 -104.5 47t-38.5 123z" />
<glyph unicode="&#x2019;" horiz-adv-x="450" d="M94 893q141 121 170 223l-4 2l-24 -6q-31 -6 -41 -6q-43 0 -71 29.5t-28 74.5q0 51 36 88t87 37q66 0 103.5 -47t37.5 -123q0 -80 -62 -157.5t-183 -139.5z" />
<glyph unicode="&#x201a;" horiz-adv-x="450" d="M94 -229q141 121 170 223l-4 2l-35 -8q-20 -4 -30 -4q-43 0 -71 29.5t-28 74.5q0 51 36 88t87 37q66 0 103.5 -47t37.5 -123q0 -80 -62 -158t-183 -139z" />
<glyph unicode="&#x201c;" horiz-adv-x="759" d="M88 1067q0 76 59.5 150.5t174.5 132.5l18 -23q-135 -115 -160 -213l2 -2l21 6q18 6 43 6q41 0 67.5 -28.5t26.5 -69.5q0 -49 -34 -85t-83 -36q-61 0 -98 45t-37 117zM412 1067q0 76 59 150.5t174 132.5l21 -23q-133 -113 -162 -213l4 -2l22 6q25 6 39 6q41 0 68 -28.5 t27 -69.5q0 -49 -34 -85t-83 -36q-61 0 -98 45t-37 117z" />
<glyph unicode="&#x201d;" horiz-adv-x="761" d="M96 915q133 113 162 213l-4 2l-25 -8q-20 -6 -39 -6q-39 0 -66.5 30t-27.5 71q0 49 35 83.5t84 34.5q61 0 97 -43.5t36 -115.5q0 -78 -58.5 -153t-174.5 -132zM420 915q133 113 162 213l-4 2l-25 -8q-20 -6 -37 -6q-41 0 -67.5 29t-26.5 72q0 49 33.5 83.5t83.5 34.5 q61 0 98 -43.5t37 -115.5q0 -76 -59.5 -152t-174.5 -133z" />
<glyph unicode="&#x201e;" horiz-adv-x="761" d="M96 94q0 49 35 84t84 35q61 0 97 -44t36 -116q0 -78 -58.5 -152.5t-174.5 -131.5l-19 24q133 113 162 213l-4 2l-23 -6q-29 -8 -41 -8q-39 0 -66.5 29.5t-27.5 70.5zM420 -207q133 113 162 213l-4 2l-21 -6q-25 -8 -41 -8q-41 0 -67.5 28.5t-26.5 71.5q0 49 33.5 84 t83.5 35q61 0 98 -44t37 -116q0 -76 -59.5 -151.5t-174.5 -132.5z" />
<glyph unicode="&#x2022;" horiz-adv-x="962" d="M205 653q0 113 80 194t194.5 81t195.5 -80t81 -194.5t-81 -195.5t-195.5 -81t-194.5 81t-80 195z" />
<glyph unicode="&#x2026;" horiz-adv-x="1296" d="M92 90q0 51 37 87t88 36t87 -36t36 -87t-36 -87t-87 -36t-88 36t-37 87zM524 90q0 51 37 87t88 36t87 -36t36 -87t-36 -87t-87 -36t-88 36t-37 87zM956 90q0 51 37 87t88.5 36t87 -36t35.5 -87t-35.5 -87t-87 -36t-88.5 36t-37 87z" />
<glyph unicode="&#x202f;" horiz-adv-x="365" />
<glyph unicode="&#x2039;" horiz-adv-x="602" d="M61 449v20l402 387l37 -33l-244 -364l244 -367l-37 -31z" />
<glyph unicode="&#x203a;" horiz-adv-x="602" d="M102 92l244 367l-244 364l37 33l402 -387v-20l-402 -388z" />
<glyph unicode="&#x205f;" horiz-adv-x="456" />
<glyph unicode="&#x20ac;" horiz-adv-x="1118" d="M27 461v67h116q-2 18 -2 58q1 61 11 129h-125v67h137q55 227 216 365.5t357 138.5q125 0 204 -53t79 -131q0 -53 -32 -88t-79 -35q-86 0 -110.5 84t39.5 160q-39 8 -86 8q-137 0 -246 -112.5t-141 -336.5h540v-67h-547q-4 -57 -4 -90q0 -51 6 -97h545v-67h-532 q41 -174 158.5 -274.5t269.5 -100.5q115 0 229 49l12 -24q-131 -141 -331.5 -141.5t-361.5 129.5t-197 362h-125z" />
<glyph unicode="&#x2122;" horiz-adv-x="1044" d="M47 1178l19 127h337l19 -127l-14 -2l-43 55q-31 41 -64 41h-22v-295l53 -19v-18h-193v18l56 19v295h-27q-33 0 -64 -41l-43 -55zM461 940v18l45 23v285l-45 20v19h164l98 -254h6l70 190l22 64h168v-19l-53 -18v-291l53 -19v-18h-186v18l49 19v280h-6l-123 -317h-41 l-127 317h-8v-276l47 -23v-18h-133z" />
<glyph unicode="&#xe000;" horiz-adv-x="921" d="M0 0v922h922v-922h-922z" />
<glyph unicode="&#xfb01;" horiz-adv-x="1177" d="M51 823v35l185 53v113q0 285 221 420q129 74 254 74q119 0 174 -50.5t55 -113.5q0 -45 -26.5 -73t-71.5 -28q-57 0 -104.5 52.5t-63.5 152.5q-137 -29 -200.5 -124t-63.5 -298v-131h378l195 47l8 -4v-885l135 -36v-27h-442v27l135 36v760h-409v-760l137 -36v-27h-447v27 l136 36v760h-185z" />
<glyph unicode="&#xfb02;" horiz-adv-x="1167" d="M51 823v35l185 53v113q0 289 221 420q123 74 254 74q88 0 143 -31l131 33l8 -7v-1450l135 -36v-27h-452v27l143 36v760h-409v-760l137 -34v-29h-447v27l136 36v760h-185zM410 905h409v350q-117 23 -145 203q-137 -29 -200.5 -124t-63.5 -298v-131z" />
</font>
</defs>
</svg>
